<?xml version="1.0" standalone="no"?>
<!DOCTYPE svg PUBLIC "-//W3C//DTD SVG 1.1//EN" "http://www.w3.org/Graphics/SVG/1.1/DTD/svg11.dtd" >
<svg xmlns="http://www.w3.org/2000/svg">
  <metadata>Created by iconfont</metadata>
  <defs>
  <font id="iconfont" horiz-adv-x="1024">
    <font-face
      font-family="iconfont"
      font-weight="400"
      font-stretch="normal"
      units-per-em="1024"
      ascent="896"
      descent="-128"
    />
      <missing-glyph />
      
      <glyph glyph-name="caiwubaobiao" unicode="&#58914;" d="M851.456 782.222222H172.487111C140.060444 782.222222 113.777778 755.939556 113.777778 723.512889v-678.968889c0-32.426667 26.282667-58.709333 58.709333-58.766222h678.968889c32.426667 0 58.766222 26.339556 58.766222 58.766222V723.512889C910.222222 755.939556 883.882667 782.222222 851.456 782.222222zM211.228444 330.524444l181.703112 149.333334a26.567111 26.567111 0 0 0 36.010666-2.389334l129.422222-138.695111 226.986667 272.099556a20.024889 20.024889 0 0 0 30.606222-25.6l-236.999111-283.875556a26.567111 26.567111 0 0 0-19.569778-9.443555 26.567111 26.567111 0 0 0-18.944 8.419555L408.348444 440.888889l-171.292444-141.198222a19.911111 19.911111 0 1 0-25.315556 30.833777h-0.512z m602.168889-202.069333H234.552889a20.366222 20.366222 0 0 0 0 40.789333h578.844444a20.366222 20.366222 0 1 0 0-40.789333z"  horiz-adv-x="1024" />
      
      <glyph glyph-name="buzhujuanzengzichan" unicode="&#58915;" d="M830.236444 157.980444c-31.744-17.009778-127.317333-89.884444-161.564444-93.696-34.019556-3.868444-126.008889 2.161778-191.431111 7.623112-74.012444 6.200889-45.169778 32.881778-33.450667 35.783111 11.719111 2.844444 153.6 9.671111 200.931556 14.506666 42.666667 4.380444 36.522667 41.870222-11.548445 43.349334-48.071111 1.479111-265.841778 14.563556-339.057777 10.24C220.785778 171.292444 113.777778 84.195556 113.777778 84.195556l3.982222-13.880889 156.046222-123.448889 20.821334 1.422222s38.229333 19.626667 70.087111 25.543111c31.800889 5.916444 207.644444-11.377778 268.344889-3.413333 60.700444 7.850667 217.088 124.472889 251.448888 149.845333 16.668444 12.515556 28.558222 30.264889 25.088 34.986667-16.668444 22.698667-58.766222 13.653333-79.36 2.673778zM592.896 651.946667s23.324444-42.780444 56.32-67.128889c32.995556-24.348444 84.195556-76.060444 80.384-160.540445-3.413333-77.198222-74.922667-148.821333-186.026667-160.711111-9.272889-1.137778-18.602667-1.706667-27.989333-1.706666h-4.949333c-9.329778-0.056889-18.659556 0.568889-27.932445 1.706666-111.104 11.946667-182.613333 83.626667-186.026666 160.711111-3.697778 84.48 47.445333 136.078222 80.440888 160.483556 32.995556 24.462222 56.206222 67.185778 56.206223 67.185778zM480.142222 537.6a20.878222 20.878222 0 0 1-25.770666 2.730667c-8.078222-5.233778-9.500444-14.791111-3.242667-21.447111l35.84-38.513778 1.080889-1.024h-36.807111c-10.126222 0-18.318222-6.826667-18.318223-15.246222 0-8.419556 8.248889-15.189333 18.318223-15.189334h43.178666v-19.342222h-43.178666c-10.126222 0-18.318222-6.826667-18.318223-15.246222 0-8.419556 8.248889-15.189333 18.318223-15.189334h43.178666v-35.441777c0-8.419556 8.135111-15.246222 18.318223-15.246223 10.126222 0 18.318222 6.997333 18.318222 15.473778v35.214222h43.178666c10.069333 0.056889 18.318222 6.826667 18.318223 15.303112 0 8.419556-8.248889 15.189333-18.375111 15.189333h-43.121778v19.342222h43.235555c10.012444 0 18.204444 6.826667 18.204445 15.189333 0 8.419556-8.192 15.246222-18.318222 15.246223h-36.750223l1.024 1.024 35.84 38.456889c6.144 6.656 4.835556 16.270222-3.242666 21.447111a20.935111 20.935111 0 0 1-25.770667-2.673778l-32.597333-35.043556zM397.937778 734.321778C420.977778 719.928889 456.078222 673.564444 456.078222 673.564444h113.948445s35.157333 46.307556 58.254222 60.700445c20.138667 13.084444 16.497778 25.258667 13.425778 28.216889-3.128889 2.958222-7.054222 7.793778-17.408 5.518222-10.353778-2.275556-24.746667-8.817778-35.669334-4.949333-10.922667 3.811556-22.698667 18.773333-35.84 19.114666a34.360889 34.360889 0 0 1-27.192889-11.150222c-4.266667-4.949333-8.931556-8.021333-12.515555-8.590222a24.462222 24.462222 0 0 0-12.515556 8.590222A34.872889 34.872889 0 0 1 473.429333 782.222222c-13.084444-0.227556-24.974222-15.246222-35.896889-19.114666s-25.372444 2.56-35.669333 4.949333c-10.24 2.389333-14.222222-2.446222-17.294222-5.518222-3.128889-3.015111-6.769778-15.189333 13.368889-28.216889z"  horiz-adv-x="1024" />
      
      <glyph glyph-name="chunabaobiao" unicode="&#58916;" d="M193.422222 114.744889h676.977778a39.822222 39.822222 0 0 0 0-79.644445H153.6a39.708444 39.708444 0 0 0-39.822222 39.822223V685.511111a39.822222 39.822222 0 0 0 79.644444 0v-570.766222z m53.077334 53.077333c2.389333 256.625778 55.466667 384.967111 159.288888 384.967111 155.761778 0 100.010667-172.600889 199.111112-172.600889s66.389333 292.067556 278.755555 292.067556V167.822222h-637.155555z"  horiz-adv-x="1024" />
      
      <glyph glyph-name="duolanmingxizhang" unicode="&#58917;" d="M418.304 668.444444h421.660444a70.257778 70.257778 0 0 0 0-140.515555H418.304a70.257778 70.257778 0 0 0 0 140.515555z m0-234.268444h421.660444a70.257778 70.257778 0 0 0 0-140.515556H418.304a70.257778 70.257778 0 0 0 0 140.515556z m0-234.211556h421.660444a70.257778 70.257778 0 0 0 0-140.515555H418.304a70.257778 70.257778 0 0 0 0 140.515555zM184.035556 527.928889a70.257778 70.257778 0 1 0 0 140.515555 70.257778 70.257778 0 0 0 0-140.515555z m0-234.268445a70.257778 70.257778 0 1 0 0 140.515556 70.257778 70.257778 0 0 0 0-140.515556z m0-234.268444a70.257778 70.257778 0 1 0 0 140.515556 70.257778 70.257778 0 0 0 0-140.515556z"  horiz-adv-x="1024" />
      
      <glyph glyph-name="huijihesuan" unicode="&#58918;" d="M830.577778 782.222222A79.644444 79.644444 0 0 0 910.222222 702.577778v-637.155556a79.644444 79.644444 0 0 0-79.644444-79.644444H193.422222A79.644444 79.644444 0 0 0 113.777778 65.422222V702.577778A79.644444 79.644444 0 0 0 193.422222 782.222222h637.155556z m-146.773334-639.715555h-5.12a28.615111 28.615111 0 1 1 0-57.173334h5.12a28.615111 28.615111 0 1 1 0 57.173334z m-451.868444 163.669333a24.746667 24.746667 0 0 1 0.341333-35.84l71.68-67.128889-71.395555-64.284444a24.291556 24.291556 0 0 1-1.706667-34.360889l1.080889-1.137778a27.648 27.648 0 0 1 37.831111-0.682667l72.988445 65.877334 71.452444-65.706667c10.865778-9.955556 27.534222-10.126222 38.570667-0.284444a23.552 23.552 0 0 1 0.284444 34.872888l-71.452444 65.706667 71.224889 66.787556a24.803556 24.803556 0 0 1 1.137777 35.043555l-1.194666 1.137778a28.444444 28.444444 0 0 1-38.798223 0l-71.224888-66.787556-73.159112 67.299556a27.420444 27.420444 0 0 1-37.660444-0.512z m553.927111-65.820444h-209.237333a24.803556 24.803556 0 1 1 0-49.664h209.237333a24.803556 24.803556 0 1 1 0 49.664zM683.804444 344.177778h-5.176888a28.615111 28.615111 0 1 1 0-57.173334h5.12a28.615111 28.615111 0 1 1 0 57.173334zM343.608889 682.666667a26.737778 26.737778 0 0 1-26.737778-26.737778v-75.776H240.241778a26.908444 26.908444 0 1 1 0-53.816889H316.871111V450.56a26.737778 26.737778 0 1 1 53.475556 0V526.336h74.922666a26.908444 26.908444 0 1 1 0 53.816889H370.346667V655.928889a26.737778 26.737778 0 0 1-26.737778 26.737778z m437.191111-99.555556h-199.111111a29.866667 29.866667 0 1 1 0-59.733333h199.111111a29.866667 29.866667 0 1 1 0 59.733333z"  horiz-adv-x="1024" />
      
      <glyph glyph-name="caiwuzhangbu" unicode="&#58919;" d="M840.078222 782.222222H192.455111v-124.814222h-52.849778A25.884444 25.884444 0 0 1 113.777778 631.580444v-57.344c0-14.222222 11.548444-25.827556 25.827555-25.827555h52.736v-46.648889h-52.224a25.884444 25.884444 0 0 1-25.827555-25.884444v-57.344c0-14.279111 11.548444-25.827556 25.827555-25.827556h52.736v-46.648889h-53.248a25.884444 25.884444 0 0 1-25.827555-25.884444v-57.400889c0-14.222222 11.548444-25.770667 25.827555-25.827556h52.736v-46.648889h-52.736a25.884444 25.884444 0 0 1-25.827555-25.827555v-57.400889c0-14.222222 11.548444-25.827556 25.827555-25.827556h52.849778v-124.814222h647.623111c38.684444 0.056889 70.087111 31.459556 70.144 70.144V712.078222C910.222222 750.819556 878.819556 782.222222 840.078222 782.222222zM287.345778 120.376889H152.917333v30.72h134.428445v-30.72z m0 155.704889H152.917333v30.776889h134.428445v-30.72z m0 155.761778H152.917333v30.72h134.428445v-30.72z m0 155.704888H152.917333v30.72h134.428445v-30.72zM709.290667 412.444444v-53.589333h-110.421334v-53.873778h110.364445v-54.101333h-110.364445v-90.624H533.617778V250.88H419.441778v54.044444H533.617778V358.968889H419.441778v53.589333H513.706667L394.695111 616.96h74.24l1.137778-2.161778c50.289778-92.16 83.114667-154.567111 97.848889-185.799111 5.12 12.117333 14.677333 31.061333 30.378666 60.416l69.176889 127.544889h69.973334L617.813333 412.444444h91.420445z"  horiz-adv-x="1024" />
      
      <glyph glyph-name="chunazhangchaxun" unicode="&#58920;" d="M816.469333 839.111111H268.401778C217.429333 839.111111 170.666667 796.615111 170.666667 741.376v-679.765333c0-55.182222 46.762667-97.735111 97.735111-97.735111 0 0 352.597333 4.266667 535.324444 4.266666 59.448889 0 106.211556 42.496 106.211556 110.478222V745.642667C914.204444 796.615111 871.708444 839.111111 816.469333 839.111111z m-471.608889-169.927111h395.150223c16.952889 0 25.486222-8.533333 25.486222-25.486222 0-12.743111-8.533333-25.543111-25.486222-25.543111H344.860444c-17.009778 0-25.486222 8.533333-25.486222 25.543111 0 16.952889 8.533333 25.486222 25.486222 25.486222z m0-169.984h395.150223c16.952889 0 25.486222-8.476444 25.486222-25.486222 0-12.743111-8.533333-25.486222-25.486222-25.486222H344.860444c-17.009778 0-25.486222 8.533333-25.486222 25.486222 0 17.009778 8.533333 25.486222 25.486222 25.486222z m178.460445-220.899556H344.860444c-17.009778 0-25.486222 8.533333-25.486222 25.486223 0 12.743111 8.533333 25.486222 25.486222 25.486222h182.670223c17.066667 0 25.486222-8.533333 25.486222-25.486222-4.209778-12.743111-12.743111-25.486222-29.696-25.486223z m310.158222-152.974222c4.209778 0 8.476444-4.209778 12.743111-4.209778 4.209778-4.266667 4.209778-8.533333 4.209778-12.743111 0-4.266667-4.209778-8.533333-4.209778-12.8-4.266667-4.209778-8.533333-4.209778-12.743111-4.209777h-59.505778v-29.752889c0-17.009778-8.533333-25.486222-29.752889-25.486223-8.533333 0-17.009778 0-21.219555 4.266667-4.266667 4.209778-8.533333 8.476444-8.533333 16.952889v29.752889h-59.448889c-4.266667 0-8.533333 4.266667-12.743111 8.533333-4.266667 4.209778-4.266667 8.476444-4.266667 12.743111 0 4.209778 4.266667 8.476444 4.266667 12.743111 4.266667 4.209778 8.533333 4.209778 12.743111 4.209778h59.448889v17.009778h-59.448889c-4.266667 0-8.533333 4.266667-12.743111 4.266667 0 4.209778-4.266667 8.476444-4.266667 12.743111 0 4.209778 4.266667 8.533333 4.266667 12.743111 4.266667 4.209778 8.533333 4.209778 12.743111 4.209778h42.496l-42.496 67.982222c0 4.266667-4.266667 4.266667-4.266667 8.533333 0 4.209778-4.209778 8.533333-4.209778 12.743111 0 4.209778 4.209778 8.533333 4.209778 12.743111 4.266667 4.266667 8.533333 4.266667 17.009778 8.533334 4.266667 0 8.533333 0 12.743111-4.266667 4.266667-4.266667 8.533333-4.266667 8.533333-8.533333l46.648889-80.725334 51.029333 80.782223 8.533334 8.476444c4.209778 4.209778 8.476444 4.209778 12.686222 4.209778h8.533333c4.266667 0 4.266667 0 8.533334-4.209778l4.209777-4.266667c0-4.266667 4.266667-4.266667 4.266667-8.533333 0-4.209778 0-12.743111-4.266667-16.952889l-46.762666-72.248889h46.762666c4.266667 0 8.533333-4.266667 12.743112-4.266666 8.533333-8.476444 8.533333-12.743111 8.533333-16.952889 0-4.266667-4.266667-8.533333-4.266667-12.743111 0-4.266667-8.533333-4.266667-12.743111-4.266667h-59.505778v-17.009778h59.505778z"  horiz-adv-x="1024" />
      
      <glyph glyph-name="chunaguanli" unicode="&#58921;" d="M906.467556 742.4H263.509333a30.264889 30.264889 0 0 1-30.264889-29.866667c0-16.042667 13.539556-29.866667 30.264889-29.866666H910.222222v-636.984889c0-32.938667-29.240889-59.904-64.967111-59.904H238.478222c-35.726222 0-64.967111 26.965333-64.967111 59.904v42.666666h21.959111c19.797333 0 35.84 16.213333 35.84 36.181334v54.272a36.010667 36.010667 0 0 1-35.84 36.238222H173.511111v108.657778h21.959111c19.797333 0 35.84 16.213333 35.84 36.181333V414.151111a36.010667 36.010667 0 0 1-35.84 36.238222H173.511111V558.990222h21.959111c19.797333 0 35.84 16.213333 35.84 36.238222v54.215112a36.010667 36.010667 0 0 1-35.84 36.238222H173.511111v36.579555C173.511111 755.256889 202.752 782.222222 238.478222 782.222222h606.776889c28.103111 0 52.167111-16.668444 61.155556-39.822222zM551.822222 145.237333a199.111111 199.111111 0 1 1 0 398.222223 199.111111 199.111111 0 0 1 0-398.222223z m83.000889 193.422223H568.433778v-33.393778h66.389333c9.102222 0 16.554667-7.452444 16.554667-16.725334a16.725333 16.725333 0 0 0-16.554667-16.782222H568.433778v-39.025778a16.611556 16.611556 0 0 0-33.166222 0v39.025778H468.764444a16.668444 16.668444 0 0 0-16.554666 16.782222c0 9.272889 7.452444 16.725333 16.554666 16.725334H535.324444v33.450666H468.878222a16.668444 16.668444 0 0 0 0 33.393778h40.106667l-42.894222 43.292445a16.668444 16.668444 0 1 0 23.495111 23.665777l60.871111-61.44 60.814222 61.44a16.611556 16.611556 0 0 0 23.438222 0 16.896 16.896 0 0 0 0-23.722666l-42.837333-43.235556h42.951111c9.102222 0 16.554667-7.452444 16.554667-16.725333a16.668444 16.668444 0 0 0-16.554667-16.668445zM138.353778 577.308444C124.757333 577.251556 113.777778 589.368889 113.777778 604.387556V640.568889c0 14.961778 10.979556 27.192889 24.576 27.192889h49.208889c13.596444 0 24.576-12.174222 24.576-27.136v-36.181334c0-14.961778-10.979556-27.136-24.576-27.136h-49.208889v-0.056888z m0-235.121777c-13.596444 0-24.576 12.174222-24.576 27.136v36.124444c0 15.018667 10.979556 27.136 24.576 27.136h49.208889c13.596444 0 24.576-12.117333 24.576-27.136v-36.124444c0-14.961778-10.979556-27.136-24.576-27.136h-49.208889z m49.208889-235.121778h-49.208889c-13.596444 0-24.576 12.117333-24.576 27.079111v36.238222c0 14.904889 10.979556 27.079111 24.576 27.079111h49.208889c13.596444 0 24.576-12.117333 24.576-27.079111v-36.181333c0-15.018667-10.979556-27.136-24.576-27.136z"  horiz-adv-x="1024" />
      
      <glyph glyph-name="huijipingzheng" unicode="&#58922;" d="M597.560889 167.253333h8.760889l35.384889 42.837334a125.44 125.44 0 0 0 0 177.265777c13.937778 13.994667 31.402667 24.917333 50.176 30.606223a128 128 0 0 0 51.541333 6.542222V668.16c0 31.402667-25.315556 57.173333-57.230222 57.173333H170.951111a58.595556 58.595556 0 0 1-40.561778-16.611555 55.751111 55.751111 0 0 1-16.611555-40.163556v-614.798222c0-15.246222 6.087111-29.696 16.611555-40.163556 10.467556-10.467556 25.315556-16.611556 40.561778-16.611555h346.282667c0.853333 0 1.706667 0 2.161778 0.455111a95.175111 95.175111 0 0 0-14.392889 48.469333v29.696c0 50.631111 41.528889 91.704889 92.558222 91.704889z m-345.315556 409.201778h148.423111a28.558222 28.558222 0 0 0 29.696-27.989333 28.558222 28.558222 0 0 0-27.989333-29.639111h-148.48a28.558222 28.558222 0 0 0-29.639111 27.875555 28.273778 28.273778 0 0 0 27.932444 29.752889z m0-168.106667h280.689778a28.558222 28.558222 0 0 0 29.696-27.989333 28.558222 28.558222 0 0 0-27.875555-29.639111H253.44a28.558222 28.558222 0 0 0-29.696 27.875556c0 16.213333 12.231111 29.297778 28.444444 29.752888z m238.819556-225.28H253.496889a28.558222 28.558222 0 0 0-29.696 27.875556 28.558222 28.558222 0 0 0 27.932444 29.696h237.568a28.558222 28.558222 0 0 0 29.696-27.875556 28.785778 28.785778 0 0 0-27.932444-29.752888zM863.516444 119.296h-28.444444l-75.491556 92.16a80.782222 80.782222 0 0 1 51.086223 102.570667 81.180444 81.180444 0 0 1-76.856889 55.466666c-8.704 0-17.464889-1.763556-25.770667-4.380444a81.066667 81.066667 0 0 1 0-153.713778l-75.548444-92.16h-28.785778a47.445333 47.445333 0 0 1-47.616-47.559111v-28.842667c0-26.168889 20.992-47.559111 47.616-47.559111h258.901333c26.168889 0 47.616 20.935111 47.616 47.559111v29.297778a46.08 46.08 0 0 1-46.705778 47.160889z"  horiz-adv-x="1024" />
      
      <glyph glyph-name="jichushezhi" unicode="&#58923;" d="M533.674667 279.210667a131.185778 131.185778 0 0 0-113.038223 35.384889 124.928 124.928 0 0 0-35.953777 110.705777c8.647111 52.394667 51.825778 94.72 105.358222 103.424a131.015111 131.015111 0 0 0 113.379555-35.271111c29.696-29.127111 43.121778-70.542222 35.896889-111.047111-8.931556-52.508444-52.110222-94.663111-105.642666-103.196444m303.104 81.578666l60.871111 37.262223a25.998222 25.998222 0 0 1 11.946666 28.046222l-29.809777 128.170666a26.453333 26.453333 0 0 1-23.210667 20.195556l-71.452444 7.793778a26.737778 26.737778 0 0 0-18.033778 9.671111l-11.946667 14.791111a25.884444 25.884444 0 0 0-5.688889 19.342222l8.248889 69.859556a26.282667 26.282667 0 0 1-14.961778 26.624l-120.832 57.059555a27.477333 27.477333 0 0 1-30.663111-5.12l-50.744889-49.777777a27.192889 27.192889 0 0 0-19.000889-7.793778h-19.114666a27.136 27.136 0 0 0-19.000889 7.793778l-50.744889 49.777777a27.079111 27.079111 0 0 1-30.606222 5.12L281.258667 722.488889a26.168889 26.168889 0 0 1-14.961778-26.624l8.192-69.973333a25.998222 25.998222 0 0 0-5.575111-19.342223l-11.946667-14.620444a26.737778 26.737778 0 0 0-17.976889-9.671111l-71.509333-7.850667a26.567111 26.567111 0 0 1-23.153778-20.195555l-29.866667-128a25.998222 25.998222 0 0 1 11.889778-28.103112l60.871111-37.376a26.282667 26.282667 0 0 0 11.946667-16.384l4.209778-18.375111a25.884444 25.884444 0 0 0-3.413334-19.854222l-38.4-59.505778a25.827556 25.827556 0 0 1 1.763556-30.378666l83.683556-102.684445a27.079111 27.079111 0 0 1 29.809777-8.362666l67.811556 23.324444a27.136 27.136 0 0 0 20.48-1.137778l17.237333-8.078222c6.485333-3.072 11.377778-8.419556 13.653334-15.018667l23.665777-66.446222c3.754667-10.524444 13.880889-17.635556 25.258667-17.635555h134.030222a26.737778 26.737778 0 0 1 25.315556 17.635555l23.608889 66.446222a26.680889 26.680889 0 0 0 13.653333 15.018667l17.237333 8.135111a27.136 27.136 0 0 0 20.48 1.137778l67.811556-23.381333c10.808889-3.697778 22.755556-0.398222 29.809778 8.362666l83.683555 102.684445a25.941333 25.941333 0 0 1 1.763556 30.378666l-38.4 59.505778a25.941333 25.941333 0 0 0-3.470222 19.854222l4.209777 18.204445a26.851556 26.851556 0 0 0 12.117334 16.554666"  horiz-adv-x="1024" />
      
      <glyph glyph-name="chunajizhang" unicode="&#58924;" d="M276.821333 405.162667a23.608889 23.608889 0 0 1 0-47.104h221.297778a23.608889 23.608889 0 0 1 0 47.104h-221.297778z m0 151.608889a23.608889 23.608889 0 0 1 0-47.160889h323.697778a23.608889 23.608889 0 0 1 0 47.160889h-323.697778z m486.855111-80.497778l-4.551111-4.437334-325.518222-326.485333a27.591111 27.591111 0 0 1-8.874667-20.48l0.625778-96.711111a33.28 33.28 0 0 1 14.734222-27.477333H187.960889c-40.96 0-74.183111 33.223111-74.183111 74.24V651.150222C113.777778 692.110222 147.000889 725.333333 187.960889 725.333333h501.475555c41.016889 0 74.24-33.223111 74.24-74.183111v-174.876444z m-19.228444-53.930667l9.557333 9.614222a80.156444 80.156444 0 0 0 116.224 0.284445l14.165334-14.222222a82.488889 82.488889 0 0 0 1.536-118.556445l-4.664889-4.664889-136.817778 127.544889z m-292.067556-293.376l136.647112-127.431111-1.024-1.024a28.672 28.672 0 0 0-20.878223-6.371556l-87.836444 0.568889a30.833778 30.833778 0 0 0-31.118222 30.549334l-0.568889 88.689777a24.177778 24.177778 0 0 0 4.778666 15.018667z m22.186667 22.755556l247.466667 248.149333 136.817778-127.658667-247.409778-248.092444-136.817778 127.601778z"  horiz-adv-x="1024" />
      
      <glyph glyph-name="huijiyuejie" unicode="&#58925;" d="M719.075556 597.902222c20.309333 0 36.807111 12.743111 36.807111 28.444445V753.777778c0 15.701333-16.497778 28.444444-36.864 28.444444-20.366222 0-36.864-12.743111-36.864-28.444444v-127.431111c0-15.701333 16.497778-28.444444 36.864-28.444445z m-406.926223 0c20.366222 0 36.864 12.743111 36.864 28.444445V753.777778c0 15.701333-16.497778 28.444444-36.864 28.444444-20.366222 0-36.864-12.743111-36.864-28.444444v-127.431111c0-15.701333 16.497778-28.444444 36.864-28.444445z m458.865778 119.978667v-41.642667a68.664889 68.664889 0 1 0-102.4 0v41.642667H364.088889v-44.544a68.664889 68.664889 0 1 0-102.4 5.404444V717.937778H113.777778v-723.228445h796.444444V717.937778h-139.207111z m67.470222-653.084445H186.993778V519.566222H838.542222v-454.656z m-442.026666 99.157334c-21.845333 3.128889-33.336889 17.180444-34.360889 42.154666h-60.871111c0-53.077333 31.232-79.644444 93.696-79.644444 60.302222 4.209778 93.127111 28.16 98.360889 71.850667 0 39.537778-18.204444 64.512-54.613334 74.922666 34.304 8.362667 51.996444 31.288889 53.020445 68.721778-4.152889 41.585778-35.384889 65.024-93.639111 70.257778-59.335111-2.104889-90.567111-28.103111-93.696-78.051556h60.871111c3.128889 21.845333 14.051556 34.304 32.824889 37.432889 21.845333-1.024 33.28-13.539556 34.304-37.432889 1.024-28.103111-21.333333-42.666667-67.128889-43.747555v-39.025778c43.747556 1.024 66.104889-14.051556 67.128889-45.283556-2.048-25.998222-14.051556-40.049778-35.84-42.097777z m226.417777-37.432889c65.536 1.024 98.816 47.843556 99.896889 140.515555-2.104889 95.744-35.384889 144.099556-99.953777 145.180445-61.44-1.080889-93.127111-49.493333-95.232-145.180445 2.104889-92.672 33.848889-139.491556 95.232-140.515555z m1.536 245.077333c23.893333-1.024 35.896889-35.84 35.896889-104.561778 0-67.697778-11.946667-102.058667-35.896889-103.025777-23.950222 0.967111-35.896889 35.328-35.896888 102.968889 0 68.721778 11.946667 103.537778 35.84 104.675555z"  horiz-adv-x="1024" />
      
      <glyph glyph-name="kemuhuizongbiao" unicode="&#58926;" d="M128.170667 583.338667l371.256889 195.754666a26.965333 26.965333 0 0 0 25.144888 0l371.313778-195.754666a26.965333 26.965333 0 0 0 1.649778-46.705778L526.222222 305.948444a26.965333 26.965333 0 0 0-28.444444 0L126.520889 536.689778a26.908444 26.908444 0 0 0 1.649778 46.705778zM812.657778 253.895111h59.505778a19.114667 19.114667 0 0 0 10.126222-35.498667l-355.896889-220.899555a26.965333 26.965333 0 0 0-28.444445 0L142.222222 218.453333a19.114667 19.114667 0 0 0 10.069334 35.498667h59.562666c5.006222 0 9.955556-1.422222 14.222222-4.039111l286.151112-177.550222 286.208 177.664a26.965333 26.965333 0 0 0 14.279111 3.925333z m0 163.783111h59.505778a19.114667 19.114667 0 0 0 10.126222-35.498666l-355.896889-220.899556a26.965333 26.965333 0 0 0-28.444445 0L142.222222 382.179556a19.114667 19.114667 0 0 0 10.069334 35.498666h59.562666c5.006222 0 9.955556-1.422222 14.222222-4.039111l286.151112-177.720889 286.264888 177.720889a26.965333 26.965333 0 0 0 14.222223 4.096v-0.056889z"  horiz-adv-x="1024" />
      
      <glyph glyph-name="a-jitizhejiutanxiao" unicode="&#58927;" d="M293.148444 429.340444L465.237333 506.88l171.121778-217.884444 117.646222 83.399111L910.222222 242.232889V700.302222A81.92 81.92 0 0 1 828.302222 782.222222H196.266667a81.92 81.92 0 0 1-82.033778-81.92v-186.140444l178.915555-84.821334zM751.616 298.211556l-126.293333-89.713778L447.374222 434.631111 292.181333 364.657778 113.777778 449.080889v-381.326222C113.777778 22.414222 150.414222-14.222222 195.697778-14.222222h632.604444A81.92 81.92 0 0 1 910.222222 67.697778v97.905778l-158.606222 132.551111z"  horiz-adv-x="1024" />
      
      <glyph glyph-name="mingxifenleizhang" unicode="&#58928;" d="M214.243556 782.222222h162.588444C432.355556 782.222222 477.297778 737.28 477.297778 681.756444V418.133333H214.243556C158.776889 418.133333 113.777778 463.132444 113.777778 518.656V681.756444C113.777778 737.223111 158.72 782.222222 214.243556 782.222222z m595.512888-364.088889H546.702222V681.756444C546.702222 737.223111 591.644444 782.222222 647.168 782.222222h162.588444C865.223111 782.222222 910.222222 737.28 910.222222 681.756444v-163.100444c0-55.523556-44.942222-100.522667-100.465778-100.522667z m0-434.801777h-162.588444a100.465778 100.465778 0 0 0-100.465778 100.465777V347.420444h263.054222c55.466667 0 100.465778-44.999111 100.465778-100.465777v-163.157334a100.465778 100.465778 0 0 0-100.465778-100.465777z m-595.512888 364.088888H477.297778v-263.566222c0-55.523556-44.942222-100.522667-100.465778-100.522666H214.243556c-55.466667 0-100.465778 44.999111-100.465778 100.522666V246.897778c0 55.466667 44.942222 100.465778 100.465778 100.465778z"  horiz-adv-x="1024" />
      
      <glyph glyph-name="kemuyuebiao" unicode="&#58929;" d="M707.242667-13.767111h-381.155556a208.327111 208.327111 0 0 0-145.237333 64.682667c-45.511111 45.738667-69.632 99.498667-66.844445 185.856 6.769778 169.927111 141.255111 280.177778 212.309334 325.176888-17.294222 19.911111-39.822222 38.001778-46.933334 77.937778a94.72 94.72 0 0 0 19.911111 78.506667c27.648 34.588444 72.419556 43.349333 119.352889 17.863111A123.164444 123.164444 0 0 0 514.275556 782.222222a124.757333 124.757333 0 0 0 97.109333-46.193778 90.965333 90.965333 0 0 0 120.775111-18.090666c17.863111-21.731556 25.144889-50.346667 19.911111-77.994667-4.551111-30.833778-23.722667-48.184889-49.948444-77.994667 71.395556-45.966222 200.817778-157.809778 207.758222-325.006222 3.584-85.902222-15.758222-140.288-61.895111-186.026666a198.997333 198.997333 0 0 0-140.686222-64.682667z m-62.520889 274.773333H546.247111v61.895111h98.474667a24.291556 24.291556 0 0 1 0 48.583111H551.594667l75.662222 75.662223a24.348444 24.348444 0 1 1-34.474667 34.360889l-72.817778-72.817778-72.647111 72.817778a24.348444 24.348444 0 1 1-34.417777-34.417778l75.662222-75.605334H400.099556a24.291556 24.291556 0 0 1 0-48.583111h97.507555v-61.838222H400.156444a24.291556 24.291556 0 0 1 0-48.583111h97.507556v-92.956444a24.291556 24.291556 0 0 1 48.583111 0v92.956444h98.474667a24.291556 24.291556 0 1 1 0 48.583111z"  horiz-adv-x="1024" />
      
      <glyph glyph-name="pingzhenghuizong" unicode="&#58930;" d="M896.910222 655.189333A34.133333 34.133333 0 0 1 869.831111 668.444444H147.911111c-18.887111 0-34.133333-15.303111-34.190222-34.133333v-524.913778a34.133333 34.133333 0 0 1 13.255111-27.022222 34.133333 34.133333 0 0 1 27.079111-13.255111h721.92c18.887111 0 34.190222 15.36 34.190222 34.190222V628.167111a34.076444 34.076444 0 0 1-13.312 27.022222zM454.712889 345.6h-79.075556v-44.373333h71.111111a25.6 25.6 0 1 0 0-51.2h-71.111111v-49.493334a25.6 25.6 0 0 0-51.2 0v49.493334H248.832a25.6 25.6 0 1 0 0 51.2h75.605333v44.373333H256.853333a25.6 25.6 0 0 0 0 51.2h67.640889v4.323556l-85.333333 81.180444a25.6 25.6 0 0 0 35.271111 37.091556l74.069333-70.428445 71.111111 80.213333a25.6 25.6 0 0 0 38.4-33.962666L375.694222 402.432v-5.632h79.018667a25.6 25.6 0 0 0 0-51.2z m334.222222-142.108444h-220.16a25.6 25.6 0 0 0 0 51.256888h220.16a25.6 25.6 0 0 0 0-51.256888z m-245.76 155.420444A25.6 25.6 0 0 0 568.888889 384.568889h156.046222a25.6 25.6 0 1 0 0-51.2H568.888889a25.6 25.6 0 0 0-25.6 25.6zM568.888889 463.132444a25.6 25.6 0 0 0 0 51.256889h255.431111a25.6 25.6 0 0 0 0-51.2H568.888889z"  horiz-adv-x="1024" />
      
      <glyph glyph-name="sanlanmingxizhang" unicode="&#58931;" d="M853.048889 625.493333H113.777778V782.222222h739.271111v-156.728889z m0-291.328H114.631111V492.657778h738.417778v-158.492445zM853.333333 43.064889H114.176v159.857778H853.333333v-159.857778z"  horiz-adv-x="1024" />
      
      <glyph glyph-name="pingzhengchaxun" unicode="&#58932;" d="M186.197333 782.222222h651.605334c39.822222 0 72.419556-32.597333 72.419555-72.419555v-651.605334c0-39.822222-32.597333-72.419556-72.419555-72.419555H186.197333C146.375111-14.222222 113.777778 18.375111 113.777778 58.197333V709.802667C113.777778 749.624889 146.375111 782.222222 186.197333 782.222222z m235.292445-293.262222l-10.808889-3.584-126.748445-18.090667c-10.865778-3.640889-21.731556-10.865778-25.372444-21.731555-3.584-10.865778 0-21.731556 7.281778-29.013334l101.376-104.96v-10.808888l-21.731556-133.973334c0-7.224889 0-18.090667 7.224889-25.372444 3.640889-7.224889 10.808889-10.808889 21.731556-10.808889 3.584 0 10.808889 0 14.449777 3.584L512 203.093333l10.808889-7.281777 112.298667-61.553778c3.584-3.640889 10.808889-3.640889 14.449777-3.640889 7.224889 0 18.090667 3.640889 21.731556 10.865778 7.224889 7.281778 7.224889 14.506667 7.224889 25.372444l-21.731556 144.782222 7.281778 7.281778 94.094222 94.094222a28.16 28.16 0 0 1 7.281778 29.013334c-3.640889 10.808889-10.865778 18.033778-25.372444 21.674666l-137.557334 21.731556-7.224889 10.808889-57.969777 119.466666c-3.584 3.640889-7.224889 10.922667-10.808889 14.506667-3.640889 7.281778-10.865778 7.281778-14.506667 7.281778s-10.808889 0-14.506667-3.640889a49.948444 49.948444 0 0 1-10.808889-14.506667l-65.194666-130.275555zM472.177778 423.822222L512 507.107556l18.090667-39.822223 21.731555-47.104 94.151111-14.449777-36.238222-36.238223-32.597333-36.181333 14.506666-97.735111-36.181333 18.090667L512 286.264889l-83.285333-47.047111 7.281777 47.047111 7.224889 47.047111-68.835555 72.419556 43.463111 7.224888L472.177778 423.822222z"  horiz-adv-x="1024" />
      
      <glyph glyph-name="guanlianshengchengpingzheng" unicode="&#58933;" d="M832.455111 725.333333c42.894222 0 77.710222-31.857778 77.767111-71.054222V568.888889C910.222222 529.578667 875.349333 497.777778 832.455111 497.777778h-16.554667A23.210667 23.210667 0 0 0 796.444444 507.904v-462.677333a28.444444 28.444444 0 0 0-46.307555-22.186667L672.995556 85.333333a28.444444 28.444444 0 0 1-35.555556 0.113778l-89.713778-71.281778a56.888889 56.888889 0 0 0-71.111111 0.341334l-87.608889 70.826666a28.444444 28.444444 0 0 1-35.555555 0.170667l-79.758223-63.146667a28.444444 28.444444 0 0 0-46.08 22.300445L227.669333 514.844444c-1.251556-3.128889-3.754667-2.844444-6.144-6.656A23.210667 23.210667 0 0 0 201.784889 497.777778h-10.24C148.650667 497.777778 113.834667 529.635556 113.777778 568.832V654.222222C113.777778 693.532444 148.650667 725.333333 191.544889 725.333333h640.910222zM682.666667 327.111111H341.333333v-56.888889h341.333334v56.888889z m0 170.666667H341.333333v-56.888889h341.333334V497.777778z m125.838222 170.666666H221.468444c-17.863111 0-51.655111-5.290667-51.655111-48.014222v-32.256c0-16.270222 14.108444-35.498667 31.971556-35.498666 13.937778-2.332444 22.357333-8.704 25.201778-19.000889l0.568889-3.185778V611.555556h568.888888v-70.883556c2.275556 6.712889 6.030222 12.003556 12.060445 12.003556h7.395555c17.863111 0 37.205333 19.228444 37.262223 35.498666v43.633778c-0.227556 16.042667-2.844444 36.636444-44.657778 36.636444z"  horiz-adv-x="1024" />
      
      <glyph glyph-name="ribaobiao" unicode="&#58934;" d="M910.222222 562.574222v-439.637333c0-39.480889-4.096-53.76-11.832889-68.209778-7.509333-14.222222-19.171556-25.884444-33.450666-33.450667-14.392889-7.68-28.728889-11.776-68.152889-11.776H227.214222c-39.424 0-53.76 4.096-68.152889 11.776a80.440889 80.440889 0 0 0-33.450666 33.450667C117.873778 69.176889 113.777778 83.456 113.777778 122.936889V562.574222h796.444444z m-267.093333-140.231111l-2.104889-1.877333-176.924444-176.810667-93.809778 93.866667-1.934222 1.706666a22.129778 22.129778 0 0 1-31.175112-30.947555l1.820445-2.104889 109.511111-109.511111 1.934222-1.706667c7.964444-6.257778 19.228444-6.314667 27.306667-0.113778l2.048 1.877334 192.512 192.512 1.706667 1.877333a22.129778 22.129778 0 0 1 0.170666 27.306667l-1.877333 2.048-1.934222 1.706666a22.129778 22.129778 0 0 1-27.306667 0.170667zM312.888889 783.815111v-33.223111l0.170667-3.811556c2.730667-23.495111 21.560889-40.391111 44.088888-40.391111 24.462222 0 44.259556 19.797333 44.259556 44.202667v33.223111h221.184v-33.223111l0.227556-3.811556c2.673778-23.495111 21.504-40.391111 44.032-40.391111 24.462222 0 44.259556 19.797333 44.259555 44.202667v33.223111h85.674667c39.424 0 53.76-4.152889 68.152889-11.832889 14.449778-7.736889 25.770667-19.000889 33.450666-33.450666 7.736889-14.392889 11.832889-28.728889 11.832889-68.152889v-63.544889H113.777778V670.378667c0 39.424 4.096 53.76 11.832889 68.152889 7.509333 14.222222 19.171556 25.884444 33.450666 33.450666 14.392889 7.68 28.728889 11.832889 68.152889 11.832889H312.888889zM357.148444 839.111111c11.207111 0 20.650667-8.419556 21.959112-19.512889l0.170666-2.616889v-66.389333a22.129778 22.129778 0 0 0-19.569778-21.959111l-2.56-0.113778a22.129778 22.129778 0 0 0-21.959111 19.512889l-0.170666 2.56V816.981333A22.129778 22.129778 0 0 0 357.148444 839.111111z m287.573334-22.129778a22.129778 22.129778 0 0 0 44.088889 2.616889l0.170666-2.616889v-66.389333a22.129778 22.129778 0 0 0-19.512889-21.959111l-2.616888-0.113778a22.129778 22.129778 0 0 0-21.959112 19.512889l-0.170666 2.56V816.981333z"  horiz-adv-x="1024" />
      
      <glyph glyph-name="yuechushihua" unicode="&#58935;" d="M365.795556 617.927111l311.864888 0.853333c14.449778 1.706667 67.470222 62.805333 79.758223 127.317334 11.776 61.041778-23.665778 80.440889-112.298667 80.440889-88.917333 0-70.542222-85.674667-88.405333-85.674667-10.410667 0-19.797333 65.763556-60.302223 93.639111-28.899556 19.911111-69.006222-31.288889-107.349333-31.744-44.714667-0.398222-103.082667 5.233778-103.082667-60.131555 0-54.044444 64.512-124.700444 79.815112-124.700445z m-15.701334 0c-11.605333 0-21.048889-5.063111-21.048889-11.093333 0-6.144 9.386667-11.093333 21.048889-11.093334h323.811556c11.662222 0 21.048889 4.949333 21.048889 11.093334 0 6.030222-9.386667 11.093333-21.048889 11.093333H350.094222z m348.16-44.202667H332.970667C214.471111 504.775111 113.777778 370.346667 113.777778 193.592889c0-194.901333 188.131556-239.388444 402.887111-239.388445 214.641778 0 393.557333 46.648889 393.557333 241.664-0.113778 163.669333-86.926222 305.322667-211.968 377.856zM576.284444 344.632889c14.222222 0 25.713778-10.581333 25.713778-23.665778 0-13.084444-11.434667-23.608889-25.713778-23.608889h-51.427555v-23.665778h51.427555c14.222222 0 25.713778-10.581333 25.713778-23.665777 0-13.027556-11.434667-23.608889-25.713778-23.608889h-51.427555v-49.664c0-13.084444-11.491556-23.608889-25.713778-23.608889-14.165333 0-25.713778 10.581333-25.713778 23.608889v49.777778h-51.427555c-14.222222 0-25.713778 10.581333-25.713778 23.608888 0 13.084444 11.434667 23.665778 25.713778 23.665778h51.427555v23.608889h-51.427555c-14.222222 0-25.713778 10.581333-25.713778 23.665778 0 13.084444 11.434667 23.608889 25.713778 23.608889h51.427555v13.767111L401.294222 422.570667a22.300444 22.300444 0 0 0-0.568889 33.393777 27.477333 27.477333 0 0 0 36.408889 0.568889l64.056889-56.888889 64.113778 56.888889a27.477333 27.477333 0 0 0 36.408889-0.568889 22.300444 22.300444 0 0 0-0.568889-33.393777L525.084444 354.986667v-10.24l51.2-0.113778z"  horiz-adv-x="1024" />
      
      <glyph glyph-name="zichanbaobiao" unicode="&#58936;" d="M910.222222 241.777778v455.111111c0 15.644444-12.8 28.444444-28.444444 28.444444h-341.333334V782.222222h-56.888888v-56.888889h-341.333334c-15.644444 0-28.444444-12.8-28.444444-28.444444v-455.111111c0-15.644444 12.8-28.444444 28.444444-28.444445h341.333334v-44.771555l-135.850667-79.644445 28.444444-49.834666 128 74.695111h17.066667l128-74.695111 28.444444 49.834666-137.216 79.644445V213.333333h341.333334c15.644444 0 28.444444 12.8 28.444444 28.444445zM759.466667 611.555556l36.977777-43.406223-281.6-240.355555-145.066666 122.311111-105.244445-88.177778-36.295111 43.406222 142.222222 118.784 145.066667-122.311111L759.466667 611.555556z"  horiz-adv-x="1024" />
      
      <glyph glyph-name="zhaiquanmingxibiao" unicode="&#58937;" d="M799.744 722.318222H695.751111v32.256a27.704889 27.704889 0 0 1-55.296 0v-32.256H390.826667v32.256a27.648 27.648 0 0 1-55.296 0v-32.256H224.256C163.271111 722.318222 113.777778 672.768 113.777778 611.84v-507.676444c0-60.871111 49.493333-110.478222 110.478222-110.478223h575.488A110.592 110.592 0 0 1 910.222222 104.163556V611.84c0 60.928-49.493333 110.478222-110.478222 110.478222z m-183.182222-343.381333a29.070222 29.070222 0 0 0 0-58.083556H539.875556l-0.568889-1.024v-32.085333h77.198222a29.070222 29.070222 0 0 0 0-58.140444H539.306667v-25.998223a29.070222 29.070222 0 0 0-58.140445 0v25.998223h-73.955555a29.070222 29.070222 0 0 0 0 58.140444H481.28v33.052444h-73.955556a29.070222 29.070222 0 0 0 0 58.140445h42.439112L384 495.388444a29.013333 29.013333 0 1 0 50.631111 28.501334L511.431111 387.640889 591.644444 525.596444a29.013333 29.013333 0 0 0 50.232889-29.184l-68.266666-117.475555h42.894222z"  horiz-adv-x="1024" />
      
      <glyph glyph-name="jiezhuansunyi" unicode="&#58938;" d="M602.339556 493.568V662.755556a48.071111 48.071111 0 0 1-48.071112 48.071111H161.848889A48.071111 48.071111 0 0 1 113.777778 662.755556v-330.752c0-26.567111 21.504-48.071111 48.071111-48.071112h231.025778V428.657778a64.853333 64.853333 0 0 0 64.910222 64.853333h144.554667z m-265.500445-90.453333H235.52c-7.509333 0-13.539556 6.485333-13.539556 14.449777s6.030222 14.449778 13.539556 14.449778h101.432889c7.509333 0 13.539556-6.485333 13.539555-14.449778s-6.144-14.392889-13.653333-14.392888z m0.113778 79.872H235.406222c-7.395556 0-13.425778 6.428444-13.425778 14.392889s6.030222 14.449778 13.425778 14.449777h101.546667c7.395556 0 13.482667-6.485333 13.482667-14.449777s-6.087111-14.392889-13.482667-14.392889z m-0.568889 79.758222H236.373333a14.392889 14.392889 0 1 0 0 28.842667h100.010667a14.392889 14.392889 0 1 0 0-28.842667zM862.264889 464.668444h-392.533333a48.071111 48.071111 0 0 1-48.071112-48.071111v-330.752c0-26.567111 21.560889-48.071111 48.071112-48.071111h392.419555a48.071111 48.071111 0 0 1 48.071111 48.071111V416.654222a48.014222 48.014222 0 0 1-47.957333 48.071111zM544.369778 345.486222h100.010666a14.449778 14.449778 0 1 0 0-28.899555H544.369778a14.449778 14.449778 0 0 0 0 28.899555z m243.256889-188.472889H544.426667a14.392889 14.392889 0 1 0 0 28.842667h243.256889a14.392889 14.392889 0 1 0 0-28.842667z m0 79.815111H544.426667a14.392889 14.392889 0 1 0 0 28.842667h243.256889a14.392889 14.392889 0 1 0 0-28.842667zM662.755556 636.529778l91.761777-53.020445a19.228444 19.228444 0 0 1 28.842667 16.668445v24.120889h69.063111v-67.299556a28.842667 28.842667 0 1 1 57.685333 0V653.084444a28.785778 28.785778 0 0 1-28.842666 28.842667h-97.792v24.120889a19.228444 19.228444 0 0 1-28.842667 16.668444l-91.761778-52.963555a19.171556 19.171556 0 0 1-0.113777-33.28z m-301.681778-524.231111l-91.761778 52.963555a19.228444 19.228444 0 0 1-28.842667-16.611555v-24.177778H171.463111v67.356444a28.842667 28.842667 0 1 1-57.628444 0v-96.142222c0-15.985778 12.856889-28.899556 28.785777-28.899555h97.848889v-24.234667c0-14.791111 15.985778-24.007111 28.785778-16.611556l91.761778 52.963556a19.342222 19.342222 0 0 1 0 33.393778z"  horiz-adv-x="1024" />
      
      <glyph glyph-name="zichanguanli" unicode="&#58939;" d="M512 782.222222a398.222222 398.222222 0 1 1 0-796.330666A398.222222 398.222222 0 0 1 512 782.222222m179.2-423.822222l-153.6-153.543111a36.181333 36.181333 0 0 0-51.2 0l-153.6 153.6a36.181333 36.181333 0 0 0 0 51.143111l153.6 153.6a36.181333 36.181333 0 0 0 51.2 0l153.6-153.6a36.181333 36.181333 0 0 0 0-51.2"  horiz-adv-x="1024" />
      
      <glyph glyph-name="zhangtaoweihu" unicode="&#58940;" d="M866.588444 580.323556l-40.732444-40.903112a111.160889 111.160889 0 0 0-157.468444 0 112.241778 112.241778 0 0 0 0 158.151112l40.732444 40.846222c22.471111 22.584889 7.452444 49.152-32.995556 42.837333-42.723556-6.599111-82.204444-26.737778-112.64-57.400889a205.368889 205.368889 0 0 1-55.296-187.164444l-341.617777-343.04a112.184889 112.184889 0 0 1 0-158.094222 111.104 111.104 0 0 1 157.411555 0l341.674667 343.04a203.662222 203.662222 0 0 1 243.598222 168.504888c6.314667 40.675556-20.138667 55.808-42.666667 33.223112z m-595.057777-492.032a36.977778 36.977778 0 0 0-52.508445 0 37.319111 37.319111 0 0 0 0 52.679111 37.205333 37.205333 0 0 0 52.508445-52.679111z m-37.091556 485.262222L363.064889 444.302222l52.508444 52.679111-128.568889 129.194667-28.899555 55.296-91.818667 65.877333L113.777778 694.670222l65.592889-92.16 55.068444-29.013333z m430.478222-274.090667a18.488889 18.488889 0 0 1-26.168889 0l-78.791111-79.075555a18.716444 18.716444 0 0 1 0-26.339556l185.742223-186.481778c29.013333-29.013333 76.060444-29.013333 105.016888 0 29.013333 29.070222 29.013333 76.288 0 105.415111l-185.799111 186.481778z"  horiz-adv-x="1024" />
      
      <glyph glyph-name="yuebaobiao" unicode="&#58941;" d="M711.054222 632.832a37.262222 37.262222 0 0 1 37.148445 37.376V744.846222a37.262222 37.262222 0 1 1-74.353778 0v-74.638222c0-20.650667 16.611556-37.376 37.205333-37.376z m-198.883555 0a37.262222 37.262222 0 0 1 37.148444 37.376V744.846222a37.262222 37.262222 0 1 1-74.353778 0v-74.638222c0-20.650667 16.611556-37.376 37.205334-37.376z m-198.940445 0a37.262222 37.262222 0 0 1 37.205334 37.376V744.846222a37.262222 37.262222 0 1 1-74.353778 0v-74.638222c0-20.650667 16.611556-37.376 37.148444-37.376zM873.244444 707.470222h-87.722666v-37.376a74.524444 74.524444 0 0 0-74.524445-74.638222 74.524444 74.524444 0 0 0-74.410666 74.638222v37.376h-50.005334v-37.376a74.524444 74.524444 0 0 0-74.410666-74.638222 74.524444 74.524444 0 0 0-74.524445 74.638222v37.376h-50.062222v-37.376a74.524444 74.524444 0 0 0-74.410667-74.638222 74.524444 74.524444 0 0 0-74.524444 74.638222v37.376H151.04A37.262222 37.262222 0 0 1 113.777778 670.094222v-647.224889c0-20.650667 16.611556-37.376 37.205333-37.376h722.033778a37.262222 37.262222 0 0 1 37.205333 37.376V670.094222a36.977778 36.977778 0 0 1-36.977778 37.376z m-566.613333-542.037333a25.6 25.6 0 0 0-25.656889-25.6h-25.656889a25.6 25.6 0 0 0-25.656889 25.6v12.913778a25.6 25.6 0 0 0 25.6 25.6h25.713778a25.6 25.6 0 0 0 25.6-25.6v-12.913778z m0 141.368889a25.6 25.6 0 0 0-25.656889-25.656889h-25.656889a25.6 25.6 0 0 0-25.656889 25.6v12.913778a25.6 25.6 0 0 0 25.6 25.656889h25.713778a25.6 25.6 0 0 0 25.6-25.6v-12.913778z m0 141.312a25.6 25.6 0 0 0-25.656889-25.6h-25.656889a25.6 25.6 0 0 0-25.656889 25.6v12.913778a25.6 25.6 0 0 0 25.6 25.6h25.713778a25.6 25.6 0 0 0 25.6-25.6v-12.913778z m488.163556-282.680889a25.6 25.6 0 0 0-25.6-25.6H396.515556a25.6 25.6 0 0 0-25.656889 25.6v12.913778a25.6 25.6 0 0 0 25.6 25.6h372.622222a25.6 25.6 0 0 0 25.656889-25.6v-12.913778z m0 141.368889a25.6 25.6 0 0 0-25.6-25.656889H396.515556a25.6 25.6 0 0 0-25.656889 25.6v12.913778a25.6 25.6 0 0 0 25.6 25.656889h372.622222a25.6 25.6 0 0 0 25.656889-25.6v-12.913778z m0 141.312a25.6 25.6 0 0 0-25.6-25.6H396.515556a25.6 25.6 0 0 0-25.656889 25.6v12.913778a25.6 25.6 0 0 0 25.6 25.6h372.622222a25.6 25.6 0 0 0 25.656889-25.6v-12.913778z"  horiz-adv-x="1024" />
      
      <glyph glyph-name="zichankapian" unicode="&#58942;" d="M910.222222 481.962667v-331.832889c0-36.636444-29.752889-66.389333-66.389333-66.389334H180.167111A66.446222 66.446222 0 0 0 113.777778 150.186667V481.962667h796.444444zM806.343111 372.622222h-7.68c-3.811556 0-7.623111 0-11.434667-3.811555l-7.68-7.623111-45.909333-72.704-42.097778 72.704c0 3.811556-3.754667 3.811556-7.623111 7.623111-3.811556 3.811556-7.623111 3.811556-11.434666 3.811555-7.68-3.811556-11.491556-3.811556-15.36-7.623111 0-3.811556-3.754667-7.623111-3.754667-11.491555 0-3.811556 3.811556-7.623111 3.811555-11.434667 0-0.967111 0.227556-1.706667 0.568889-2.275556l2.616889-3.128889 0.625778-2.275555 38.229333-61.212445h-38.229333c-3.811556 0-7.623111 0-11.491556-3.811555 0-3.811556-3.811556-7.623111-3.811555-11.491556 0-3.811556 3.811556-7.623111 3.811555-11.434666 3.868444 0 7.68-3.811556 11.491556-3.811556h53.532444v-15.36h-53.532444c-3.811556 0-7.623111 0-11.491556-3.811555 0-3.811556-3.811556-7.623111-3.811555-11.434667 0-3.868444 0-7.68 3.811555-11.491556 3.868444-3.811556 7.68-7.623111 11.491556-7.623111h53.532444v-26.794666c0-7.68 3.811556-11.491556 7.68-15.303112 3.811556-3.811556 11.434667-3.811556 19.114667-3.811555 19.114667 0 26.737778 7.623111 26.737778 22.926222v26.737778h53.589333c3.811556 0 7.623111 0 11.434667 3.868444 0 3.811556 3.868444 7.623111 3.868444 11.491556 0 3.811556 0 7.623111-3.868444 11.434667-3.811556 0-7.623111 3.868444-11.434667 3.868444H768v15.303111h53.589333c3.811556 0 11.434667 0 11.434667 3.811556s3.868444 7.623111 3.868444 11.434666c0 3.868444 0 7.68-7.68 15.36-3.811556 0-7.623111 3.811556-11.491555 3.811556h-42.097778l42.097778 65.024c3.868444 3.811556 3.868444 11.434667 3.868444 15.303111 0 3.811556-3.868444 3.811556-3.868444 7.623111l-3.811556 3.811556c-3.811556 3.811556-3.811556 3.811556-7.623111 3.811555z m37.546667 352.711111C880.412444 725.333333 910.222222 695.580444 910.222222 658.944v-88.462222H113.777778V658.944C113.777778 695.580444 143.530667 725.333333 180.167111 725.333333z"  horiz-adv-x="1024" />
      
      <glyph glyph-name="a-1_caozuo-gengduo" unicode="&#58953;" d="M170.666667 405.333333m-85.333334 0a85.333333 85.333333 0 1 1 170.666667 0 85.333333 85.333333 0 1 1-170.666667 0ZM512 405.333333m-85.333333 0a85.333333 85.333333 0 1 1 170.666666 0 85.333333 85.333333 0 1 1-170.666666 0ZM853.333333 405.333333m-85.333333 0a85.333333 85.333333 0 1 1 170.666667 0 85.333333 85.333333 0 1 1-170.666667 0Z"  horiz-adv-x="1024" />
      
      <glyph glyph-name="a-1-56" unicode="&#58954;" d="M772.266667 810.666667H251.733333A166.826667 166.826667 0 0 1 85.333333 643.84V123.733333A166.826667 166.826667 0 0 1 251.733333-42.666667h520.533334a166.826667 166.826667 0 0 1 166.4 166.4V643.84A166.826667 166.826667 0 0 1 772.266667 810.666667z m-9.813334-314.453334L469.333333 202.666667a42.666667 42.666667 0 0 0-30.293333-12.373334 42.666667 42.666667 0 0 0-30.293333 12.373334l-147.2 146.773333a42.666667 42.666667 0 0 0 0 60.586667 42.666667 42.666667 0 0 0 60.16 0l116.906666-116.906667L702.293333 554.666667a42.666667 42.666667 0 0 0 60.16 0 42.666667 42.666667 0 0 0 0-58.453334z"  horiz-adv-x="1024" />
      
      <glyph glyph-name="a-1_cengji-xuanzhong" unicode="&#58955;" d="M549.546667 773.973333l98.133333-201.386666a46.933333 46.933333 0 0 1 34.986667-26.453334l219.733333-34.133333a42.666667 42.666667 0 0 0 23.466667-72.533333L768 284.16a48.64 48.64 0 0 1-13.653333-42.666667l37.546666-221.44a42.666667 42.666667 0 0 0-61.013333-45.226666l-195.84 104.533333a45.653333 45.653333 0 0 1-42.666667 0l-198.4-104.106667a42.666667 42.666667 0 0 0-61.013333 45.226667l37.546667 221.44a48.64 48.64 0 0 1-13.653334 42.666667L98.133333 441.173333A42.666667 42.666667 0 0 0 121.6 512L341.333333 546.133333a46.933333 46.933333 0 0 1 35.84 26.453334l98.133334 201.386666a42.666667 42.666667 0 0 0 74.24 0z"  horiz-adv-x="1024" />
      
      <glyph glyph-name="a-1_cengji-weixuan" unicode="&#58956;" d="M725.333333-28.16a85.333333 85.333333 0 0 0-37.546666 9.386667L512 74.666667l-176.213333-93.44a80.64 80.64 0 0 0-85.333334 6.4 78.933333 78.933333 0 0 0-32 78.933333l33.706667 197.546667-142.506667 140.373333a80.64 80.64 0 0 0 44.8 137.813333l197.12 28.586667 88.32 180.053333a80.213333 80.213333 0 0 0 144.213334 0l88.32-180.053333 197.12-28.586667a80.64 80.64 0 0 0 44.8-137.813333l-142.506667-139.946667 33.28-197.973333a78.933333 78.933333 0 0 0-32-78.933333 81.066667 81.066667 0 0 0-47.786667-15.786667zM175.786667 459.093333l136.106666-133.546666a85.333333 85.333333 0 0 0 24.746667-75.946667l-32-188.16 167.68 88.746667a85.333333 85.333333 0 0 0 79.36 0l167.68-88.746667-32 188.16a85.333333 85.333333 0 0 0 24.746667 75.946667l136.106666 133.546666-188.16 27.306667A85.333333 85.333333 0 0 0 597.333333 533.333333l-85.333333 170.666667-85.333333-170.666667a85.333333 85.333333 0 0 0-62.72-46.933333z m331.946666 256z"  horiz-adv-x="1024" />
      
      <glyph glyph-name="a-1_danxuan-weixuan" unicode="&#58957;" d="M512 725.333333a341.333333 341.333333 0 1 0-341.333333-341.333333 341.333333 341.333333 0 0 0 341.333333 341.333333m0 85.333334a426.666667 426.666667 0 1 1 426.666667-426.666667A426.666667 426.666667 0 0 1 512 810.666667z"  horiz-adv-x="1024" />
      
      <glyph glyph-name="a-1_daibanshixiang" unicode="&#58958;" d="M832 336.64V512a298.666667 298.666667 0 0 1-298.666667 298.666667h-42.666666a298.666667 298.666667 0 0 1-298.666667-298.666667v-175.36a128 128 0 0 1 21.333333-253.866667h170.666667a128 128 0 0 1 252.586667 0h170.666666a128 128 0 0 1 21.333334 253.866667zM512 42.666667a42.666667 42.666667 0 0 0-42.666667 40.106666h85.333334a42.666667 42.666667 0 0 0-42.666667-40.106666z m298.666667 125.44H213.333333a42.666667 42.666667 0 1 0 0 85.333333h64V512a213.333333 213.333333 0 0 0 213.333334 213.333333h42.666666a213.333333 213.333333 0 0 0 213.333334-213.333333v-258.986667H810.666667a42.666667 42.666667 0 1 0 0-85.333333z"  horiz-adv-x="1024" />
      
      <glyph glyph-name="a-1_chenggong" unicode="&#58959;" d="M813.653333 685.653333a426.666667 426.666667 0 1 1 0-603.306666 426.666667 426.666667 0 0 1 0 603.306666z m-51.2-189.44L469.333333 202.666667a42.666667 42.666667 0 0 0-30.293333-12.373334 42.666667 42.666667 0 0 0-30.293333 12.373334l-147.2 146.773333a42.666667 42.666667 0 0 0 0 60.586667 42.666667 42.666667 0 0 0 60.16 0l116.906666-116.906667L702.293333 554.666667a42.666667 42.666667 0 0 0 60.16 0 42.666667 42.666667 0 0 0 0-58.453334z"  horiz-adv-x="1024" />
      
      <glyph glyph-name="a-1_danxuan-xuanzhong" unicode="&#58960;" d="M512 810.666667a426.666667 426.666667 0 1 1 426.666667-426.666667A426.666667 426.666667 0 0 1 512 810.666667z m0-768a341.333333 341.333333 0 1 0 341.333333 341.333333 341.333333 341.333333 0 0 0-341.333333-341.333333zM512 384m-256 0a256 256 0 1 1 512 0 256 256 0 1 1-512 0Z"  horiz-adv-x="1024" />
      
      <glyph glyph-name="a-1_danchuang-shouqi" unicode="&#58961;" d="M885.333333 139.093333a52.906667 52.906667 0 0 0-37.546666 15.36L512 489.386667l-334.08-334.933334a53.333333 53.333333 0 0 0-75.52 75.52l372.906667 372.48a54.186667 54.186667 0 0 0 75.093333 0l372.906667-372.48a53.333333 53.333333 0 0 0 0-75.52 54.613333 54.613333 0 0 0-37.973334-15.36z"  horiz-adv-x="1024" />
      
      <glyph glyph-name="a-1_daohang-dakai-40" unicode="&#58962;" d="M328.96-42.666667a53.333333 53.333333 0 0 0-37.973333 90.88L625.92 384 290.986667 718.506667a53.333333 53.333333 0 0 0 75.52 75.52l372.48-372.48a53.333333 53.333333 0 0 0 0-75.52l-372.48-372.053334a51.626667 51.626667 0 0 0-37.546667-16.64z"  horiz-adv-x="1024" />
      
      <glyph glyph-name="a-1_danchuang-dakai" unicode="&#58963;" d="M512 149.333333a51.626667 51.626667 0 0 0-37.546667 15.786667L101.12 538.026667a53.333333 53.333333 0 0 0 75.52 75.52L512 278.186667l335.36 335.36a53.333333 53.333333 0 0 0 75.52-75.52l-373.333333-372.906667a51.626667 51.626667 0 0 0-37.546667-15.786667z"  horiz-adv-x="1024" />
      
      <glyph glyph-name="a-1_daohang-moren" unicode="&#58964;" d="M85.333333 810.666667m85.333334 0l213.333333 0q85.333333 0 85.333333-85.333334l0-213.333333q0-85.333333-85.333333-85.333333l-213.333333 0q-85.333333 0-85.333334 85.333333l0 213.333333q0 85.333333 85.333334 85.333334ZM85.333333 341.333333m85.333334 0l213.333333 0q85.333333 0 85.333333-85.333333l0-213.333333q0-85.333333-85.333333-85.333334l-213.333333 0q-85.333333 0-85.333334 85.333334l0 213.333333q0 85.333333 85.333334 85.333333ZM554.666667 341.333333m85.333333 0l213.333333 0q85.333333 0 85.333334-85.333333l0-213.333333q0-85.333333-85.333334-85.333334l-213.333333 0q-85.333333 0-85.333333 85.333334l0 213.333333q0 85.333333 85.333333 85.333333ZM554.666667 810.666667m85.333333 0l213.333333 0q85.333333 0 85.333334-85.333334l0-213.333333q0-85.333333-85.333334-85.333333l-213.333333 0q-85.333333 0-85.333333 85.333333l0 213.333333q0 85.333333 85.333333 85.333334Z"  horiz-adv-x="1024" />
      
      <glyph glyph-name="a-1_daochu" unicode="&#58965;" d="M397.653333 593.493333L469.333333 665.173333v-422.4a42.666667 42.666667 0 0 1 85.333334 0v422.4l71.68-71.68a42.666667 42.666667 0 0 1 60.16 0 42.666667 42.666667 0 0 1 0 60.16l-144.213334 144.64a42.666667 42.666667 0 0 1-60.586666 0L337.493333 653.653333a42.666667 42.666667 0 0 1 60.16-60.16zM810.666667 554.666667a42.666667 42.666667 0 0 1 0-85.333334 42.666667 42.666667 0 0 0 42.666666-42.666666v-341.333334a42.666667 42.666667 0 0 0-42.666666-42.666666H213.333333a42.666667 42.666667 0 0 0-42.666666 42.666666v341.333334a42.666667 42.666667 0 0 0 42.666666 42.666666 42.666667 42.666667 0 0 1 0 85.333334 128 128 0 0 1-128-128v-341.333334a128 128 0 0 1 128-128h597.333334a128 128 0 0 1 128 128v341.333334a128 128 0 0 1-128 128z"  horiz-adv-x="1024" />
      
      <glyph glyph-name="a-1_duoxuan-jianqu" unicode="&#58966;" d="M772.266667 810.666667H251.733333A166.826667 166.826667 0 0 1 85.333333 643.84V123.733333A166.826667 166.826667 0 0 1 251.733333-42.666667h520.533334a166.826667 166.826667 0 0 1 166.4 166.4V643.84A166.826667 166.826667 0 0 1 772.266667 810.666667z m-68.266667-469.333334h-384a42.666667 42.666667 0 0 0 0 85.333334h384a42.666667 42.666667 0 0 0 0-85.333334z"  horiz-adv-x="1024" />
      
      <glyph glyph-name="a-1_duoxuan-weixuan" unicode="&#58967;" d="M810.666667 725.333333a42.666667 42.666667 0 0 0 42.666666-42.666666v-597.333334a42.666667 42.666667 0 0 0-42.666666-42.666666H213.333333a42.666667 42.666667 0 0 0-42.666666 42.666666V682.666667a42.666667 42.666667 0 0 0 42.666666 42.666666h597.333334m0 85.333334H213.333333a128 128 0 0 1-128-128v-597.333334a128 128 0 0 1 128-128h597.333334a128 128 0 0 1 128 128V682.666667a128 128 0 0 1-128 128z"  horiz-adv-x="1024" />
      
      <glyph glyph-name="a-1_guanbi1" unicode="&#58968;" d="M587.52 384l331.946667 331.946667a53.333333 53.333333 0 0 1-75.52 75.52L512 459.52 180.053333 791.466667a53.333333 53.333333 0 0 1-75.52-75.52L436.48 384l-331.946667-331.946667a53.333333 53.333333 0 0 1 75.52-75.52L512 308.48l331.946667-331.946667a53.333333 53.333333 0 0 1 75.52 75.52z"  horiz-adv-x="1024" />
      
      <glyph glyph-name="a-1_gerenziliao" unicode="&#58969;" d="M512 426.666667a192 192 0 1 1-192 192A191.573333 191.573333 0 0 1 512 426.666667z m0 298.666666a106.666667 106.666667 0 1 0-106.666667-106.666666A106.666667 106.666667 0 0 0 512 725.333333zM725.333333 384H298.666667a213.333333 213.333333 0 0 1 0-426.666667h426.666666a213.333333 213.333333 0 0 1 0 426.666667z m0-341.333333H298.666667a128 128 0 0 0 0 256h426.666666a128 128 0 0 0 0-256zM719.36 224H533.333333a53.333333 53.333333 0 0 1 0-106.666667h186.026667a53.333333 53.333333 0 0 1 0 106.666667z"  horiz-adv-x="1024" />
      
      <glyph glyph-name="a-1_guanbi2" unicode="&#58970;" d="M512 810.666667a426.666667 426.666667 0 1 1 426.666667-426.666667A426.666667 426.666667 0 0 1 512 810.666667z m158.293333-524.373334a42.666667 42.666667 0 0 0 0-60.586666 42.666667 42.666667 0 0 0-60.586666 0L512 323.84l-97.706667-98.133333a42.666667 42.666667 0 0 0-60.586666 0 42.666667 42.666667 0 0 0 0 60.586666l98.133333 97.706667-98.133333 97.706667a42.666667 42.666667 0 0 0 60.586666 60.586666L512 444.586667l97.706667 97.706666a42.666667 42.666667 0 0 0 60.586666-60.586666L572.16 384z"  horiz-adv-x="1024" />
      
      <glyph glyph-name="a-1_daohang-dakai-54" unicode="&#58971;" d="M85.333333 786.346667m85.333334 0l200.533333 0q85.333333 0 85.333333-85.333334l0-200.533333q0-85.333333-85.333333-85.333333l-200.533333 0q-85.333333 0-85.333334 85.333333l0 200.533333q0 85.333333 85.333334 85.333334ZM85.333333 328.533333m85.333334 0l200.533333 0q85.333333 0 85.333333-85.333333l0-200.533333q0-85.333333-85.333333-85.333334l-200.533333 0q-85.333333 0-85.333334 85.333334l0 200.533333q0 85.333333 85.333334 85.333333ZM546.986667 328.533333m85.333333 0l200.533333 0q85.333333 0 85.333334-85.333333l0-200.533333q0-85.333333-85.333334-85.333334l-200.533333 0q-85.333333 0-85.333333 85.333334l0 200.533333q0 85.333333 85.333333 85.333333ZM495.511676 600.344994m52.797307 52.797306l131.540717 131.540717q52.797306 52.797306 105.594613 0l131.540717-131.540717q52.797306-52.797306 0-105.594613l-131.540717-131.540717q-52.797306-52.797306-105.594613 0l-131.540717 131.540717q-52.797306 52.797306 0 105.594613Z"  horiz-adv-x="1024" />
      
      <glyph glyph-name="a-1_daohang-shouqi" unicode="&#58972;" d="M698.026667-42.666667a51.626667 51.626667 0 0 0-37.546667 15.786667l-372.48 372.906667a55.04 55.04 0 0 0-15.36 37.973333 53.333333 53.333333 0 0 0 15.36 37.546667l372.48 372.48a53.333333 53.333333 0 1 0 75.52-75.52L401.066667 384l334.933333-334.933333a53.333333 53.333333 0 0 0-37.973333-91.733334z"  horiz-adv-x="1024" />
      
      <glyph glyph-name="a-1_jinggao" unicode="&#58973;" d="M512 810.666667a426.666667 426.666667 0 1 1 426.666667-426.666667A426.666667 426.666667 0 0 1 512 810.666667z m0-695.893334a53.333333 53.333333 0 1 0 53.333333 53.333334A53.333333 53.333333 0 0 0 512 114.773333z m53.333333 233.813334a53.333333 53.333333 0 0 0-106.666666 0v256a53.333333 53.333333 0 1 0 106.666666 0z"  horiz-adv-x="1024" />
      
      <glyph glyph-name="a-1_kongshuju" unicode="&#58974;" d="M810.666667 810.666667H213.333333a85.333333 85.333333 0 0 1-85.333333-85.333334v-682.666666a85.333333 85.333333 0 0 1 85.333333-85.333334h597.333334a85.333333 85.333333 0 0 1 85.333333 85.333334V725.333333a85.333333 85.333333 0 0 1-85.333333 85.333334z m0-768H213.333333V725.333333h597.333334zM406.186667 514.56m-53.333334 0a53.333333 53.333333 0 1 1 106.666667 0 53.333333 53.333333 0 1 1-106.666667 0ZM619.093333 514.56m-53.333333 0a53.333333 53.333333 0 1 1 106.666667 0 53.333333 53.333333 0 1 1-106.666667 0ZM426.666667 263.68a124.586667 124.586667 0 0 0 176.213333 0 42.666667 42.666667 0 0 1 60.16 60.586667 210.346667 210.346667 0 0 1-298.666667 0 42.666667 42.666667 0 0 1 0-60.586667 42.666667 42.666667 0 0 1 62.293334 0z"  horiz-adv-x="1024" />
      
      <glyph glyph-name="a-1_lajitong-shanchu" unicode="&#58975;" d="M896 640h-170.666667V682.666667a128 128 0 0 1-128 128h-170.666666a128 128 0 0 1-128-128v-42.666667H128a42.666667 42.666667 0 0 1 0-85.333333h768a42.666667 42.666667 0 0 1 0 85.333333zM384 682.666667a42.666667 42.666667 0 0 0 42.666667 42.666666h170.666666a42.666667 42.666667 0 0 0 42.666667-42.666666v-42.666667H384zM763.733333 512H260.266667a85.333333 85.333333 0 0 1-85.333334-93.013333l34.986667-384a85.333333 85.333333 0 0 1 85.333333-77.653334h433.92a85.333333 85.333333 0 0 1 85.333334 77.653334l34.986666 384A85.333333 85.333333 0 0 1 763.733333 512zM554.666667 426.666667v-384h-85.333334v384z m-294.4 0H384v-384H294.826667z m469.333333-426.666667v42.666667z m0 42.666667H640v384h123.733333z"  horiz-adv-x="1024" />
      
      <glyph glyph-name="a-1_qiehuan" unicode="&#58976;" d="M888.746667 341.333333a42.666667 42.666667 0 0 0-42.666667 42.666667V512a42.666667 42.666667 0 0 1-42.666667 42.666667H154.88a42.666667 42.666667 0 0 0-30.293333 72.96l170.666666 170.666666a42.666667 42.666667 0 1 0 61.44-60.586666L258.133333 640h546.133334a128 128 0 0 0 128-128v-128a42.666667 42.666667 0 0 0-43.52-42.666667zM717.653333-42.666667a42.666667 42.666667 0 0 0-30.293333 12.373334 42.666667 42.666667 0 0 0 0 60.586666L785.92 128H239.786667a128 128 0 0 0-128 128v128a42.666667 42.666667 0 0 0 85.333333 0v-128a42.666667 42.666667 0 0 1 42.666667-42.666667h648.96a42.666667 42.666667 0 0 0 39.68-26.453333 42.666667 42.666667 0 0 0-9.386667-46.506667l-170.666667-170.666666a42.666667 42.666667 0 0 0-30.72-12.373334z"  horiz-adv-x="1024" />
      
      <glyph glyph-name="a-1_renmenbifuhao" unicode="&#58977;" d="M768 426.666667a42.666667 42.666667 0 0 1 0 85.333333h-193.28l225.706667 225.28a42.666667 42.666667 0 1 1-60.586667 60.586667L512 570.026667 284.16 798.293333a42.666667 42.666667 0 0 1-60.586667-60.586666L449.28 512H256a42.666667 42.666667 0 0 1 0-85.333333h213.333333v-128H256a42.666667 42.666667 0 1 1 0-85.333334h213.333333v-213.333333a42.666667 42.666667 0 0 1 85.333334 0v213.333333h213.333333a42.666667 42.666667 0 0 1 0 85.333334h-213.333333v128z"  horiz-adv-x="1024" />
      
      <glyph glyph-name="a-1_rili" unicode="&#58978;" d="M853.333333 725.333333h-128V768a42.666667 42.666667 0 0 1-85.333333 0v-42.666667H384V768a42.666667 42.666667 0 0 1-85.333333 0v-42.666667H170.666667a85.333333 85.333333 0 0 1-85.333334-85.333333v-597.333333a85.333333 85.333333 0 0 1 85.333334-85.333334h682.666666a85.333333 85.333333 0 0 1 85.333334 85.333334V640a85.333333 85.333333 0 0 1-85.333334 85.333333zM170.666667 640h128v-42.666667a42.666667 42.666667 0 0 1 85.333333 0V640h256v-42.666667a42.666667 42.666667 0 0 1 85.333333 0V640h128v-170.666667H170.666667z m682.666666-597.333333H170.666667v341.333333h682.666666z"  horiz-adv-x="1024" />
      
      <glyph glyph-name="a-1_shaixuan" unicode="&#58979;" d="M233.813333 445.866667h554.666667a42.666667 42.666667 0 0 1 30.293333 72.96l-276.48 278.186666a42.666667 42.666667 0 0 1-60.586666 0L203.52 518.826667a42.666667 42.666667 0 0 1 30.293333-72.96zM790.186667 322.133333h-554.666667a42.666667 42.666667 0 0 1-30.293333-72.96l278.186666-278.186666a42.666667 42.666667 0 0 1 60.586667 0l278.186667 278.186666a42.666667 42.666667 0 0 1-32 72.96z"  horiz-adv-x="1024" />
      
      <glyph glyph-name="a-1_shanchu-jianqu" unicode="&#58980;" d="M813.653333 685.653333a426.666667 426.666667 0 1 1 0-603.306666 426.666667 426.666667 0 0 1 0 603.306666zM704 341.333333h-384a42.666667 42.666667 0 0 0 0 85.333334h384a42.666667 42.666667 0 0 0 0-85.333334z"  horiz-adv-x="1024" />
      
      <glyph glyph-name="a-1_shenpi" unicode="&#58981;" d="M820.053333 682.666667h-42.666666A288.426667 288.426667 0 0 0 554.666667 788.48a53.333333 53.333333 0 0 1-82.773334 0A288.426667 288.426667 0 0 0 246.186667 682.666667h-42.666667a51.626667 51.626667 0 0 1-52.48-51.626667l23.893333-358.826667c0-146.773333 237.226667-271.36 313.173334-307.2a58.453333 58.453333 0 0 1 47.786666 0c75.946667 35.84 313.173333 160.426667 313.173334 307.2l23.893333 358.826667A51.626667 51.626667 0 0 1 820.053333 682.666667zM725.333333 477.013333l-238.506666-236.373333a42.666667 42.666667 0 0 0-29.866667-12.373333 42.666667 42.666667 0 0 0-29.866667 11.946666l-128 128a42.666667 42.666667 0 0 0 59.733334 60.586667l99.84-98.56 207.36 207.36A42.666667 42.666667 0 0 0 725.333333 477.013333z"  horiz-adv-x="1024" />
      
      <glyph glyph-name="a-1_shujushousuo" unicode="&#58982;" d="M447.573333 649.813333a42.666667 42.666667 0 0 1-42.666666-42.666666v-58.453334L286.72 666.88A42.666667 42.666667 0 0 1 226.133333 606.293333l118.186667-118.186666H285.866667a42.666667 42.666667 0 0 1 0-85.333334h161.706666a42.666667 42.666667 0 0 1 42.666667 42.666667V607.146667a42.666667 42.666667 0 0 1-42.666667 42.666666zM679.68 273.066667h58.453333a42.666667 42.666667 0 0 1 0 85.333333h-161.706666a42.666667 42.666667 0 0 1-42.666667-42.666667v-161.706666a42.666667 42.666667 0 0 1 85.333333 0V213.333333l118.186667-118.186666a42.666667 42.666667 0 0 1 60.586667 0 42.666667 42.666667 0 0 1 0 60.586666zM810.666667 807.253333H213.333333a128 128 0 0 1-128-128v-597.333333a128 128 0 0 1 128-128h597.333334a128 128 0 0 1 128 128v597.333333a128 128 0 0 1-128 128z m42.666666-725.333333a42.666667 42.666667 0 0 0-42.666666-42.666667H213.333333a42.666667 42.666667 0 0 0-42.666666 42.666667v597.333333a42.666667 42.666667 0 0 0 42.666666 42.666667h597.333334a42.666667 42.666667 0 0 0 42.666666-42.666667z"  horiz-adv-x="1024" />
      
      <glyph glyph-name="a-1_tianjia1" unicode="&#58983;" d="M885.333333 437.333333h-320v320a53.333333 53.333333 0 0 1-106.666666 0v-320h-320a53.333333 53.333333 0 0 1 0-106.666666h320v-320a53.333333 53.333333 0 0 1 106.666666 0v320h320a53.333333 53.333333 0 0 1 0 106.666666z"  horiz-adv-x="1024" />
      
      <glyph glyph-name="a-1_tianjia2" unicode="&#58984;" d="M813.653333 685.653333a426.666667 426.666667 0 1 1 0-603.306666 426.666667 426.666667 0 0 1 0 603.306666zM704 341.333333H554.666667v-149.333333a42.666667 42.666667 0 0 0-85.333334 0V341.333333H320a42.666667 42.666667 0 0 0 0 85.333334H469.333333V576a42.666667 42.666667 0 0 0 85.333334 0V426.666667h149.333333a42.666667 42.666667 0 0 0 0-85.333334z"  horiz-adv-x="1024" />
      
      <glyph glyph-name="a-1_shujudakai" unicode="&#58985;" d="M359.253333 593.92h58.453334a42.666667 42.666667 0 0 1 0 85.333333H256a42.666667 42.666667 0 0 1-42.666667-42.666666v-161.28a42.666667 42.666667 0 0 1 85.333334 0V533.76l118.186666-118.186667a42.666667 42.666667 0 0 1 30.293334-12.8 42.666667 42.666667 0 0 1 29.866666 12.8 42.666667 42.666667 0 0 1 0 60.16zM768 328.96a42.666667 42.666667 0 0 1-42.666667-42.666667v-58.453333l-118.613333 117.76a42.666667 42.666667 0 0 1-60.16 0 42.666667 42.666667 0 0 1 0-60.16l118.186667-118.186667h-58.453334a42.666667 42.666667 0 0 1 0-85.333333H768a42.666667 42.666667 0 0 1 42.666667 42.666667v161.706666a42.666667 42.666667 0 0 1-42.666667 42.666667zM810.666667 807.253333H213.333333a128 128 0 0 1-128-128v-597.333333a128 128 0 0 1 128-128h597.333334a128 128 0 0 1 128 128v597.333333a128 128 0 0 1-128 128z m42.666666-725.333333a42.666667 42.666667 0 0 0-42.666666-42.666667H213.333333a42.666667 42.666667 0 0 0-42.666666 42.666667v597.333333a42.666667 42.666667 0 0 0 42.666666 42.666667h597.333334a42.666667 42.666667 0 0 0 42.666666-42.666667z"  horiz-adv-x="1024" />
      
      <glyph glyph-name="a-1_tuichu" unicode="&#58986;" d="M927.146667 413.013333l-144.64 144.213334a42.666667 42.666667 0 0 1-60.16 0 42.666667 42.666667 0 0 1 0-60.16L793.6 426.666667H384a42.666667 42.666667 0 0 1 0-85.333334h409.6l-71.253333-72.533333a42.666667 42.666667 0 0 1 60.16-60.586667l144.64 144.64a42.666667 42.666667 0 0 1 0 60.16zM640 128a42.666667 42.666667 0 0 1-42.666667-42.666667 42.666667 42.666667 0 0 0-42.666666-42.666666H213.333333a42.666667 42.666667 0 0 0-42.666666 42.666666V682.666667a42.666667 42.666667 0 0 0 42.666666 42.666666h341.333334a42.666667 42.666667 0 0 0 42.666666-42.666666 42.666667 42.666667 0 1 1 85.333334 0 128 128 0 0 1-128 128H213.333333a128 128 0 0 1-128-128v-597.333334a128 128 0 0 1 128-128h341.333334a128 128 0 0 1 128 128 42.666667 42.666667 0 0 1-42.666667 42.666667z"  horiz-adv-x="1024" />
      
      <glyph glyph-name="a-1_xiazai" unicode="&#58987;" d="M474.453333 159.573333a53.76 53.76 0 0 1 75.093334 0l201.386666 201.386667a53.333333 53.333333 0 0 1-75.52 75.52l-110.08-110.08V757.333333a53.333333 53.333333 0 0 1-106.666666 0v-430.933333l-110.08 110.08a53.333333 53.333333 0 0 1-75.52-75.52zM885.333333 64H138.666667a53.333333 53.333333 0 0 1 0-106.666667h746.666666a53.333333 53.333333 0 0 1 0 106.666667z"  horiz-adv-x="1024" />
      
      <glyph glyph-name="a-1_xiangqing-dakai" unicode="&#58988;" d="M661.76 469.333333L512 317.013333l-148.906667 147.2a42.666667 42.666667 0 0 1-60.16 0 42.666667 42.666667 0 0 1 0-60.586666l177.066667-177.066667A42.666667 42.666667 0 0 1 512 213.333333a42.666667 42.666667 0 0 1 29.866667 12.373334l181.76 181.333333a42.666667 42.666667 0 0 1 0 60.586667 42.666667 42.666667 0 0 1-61.866667 1.706666zM512 810.666667a426.666667 426.666667 0 1 1 426.666667-426.666667A426.666667 426.666667 0 0 1 512 810.666667z m0-768a341.333333 341.333333 0 1 0 341.333333 341.333333 341.333333 341.333333 0 0 0-341.333333-341.333333z"  horiz-adv-x="1024" />
      
      <glyph glyph-name="a-1_sousuo" unicode="&#58989;" d="M923.733333 42.666667l-120.32 120.32A400.64 400.64 0 0 1 203.52 693.333333a400.64 400.64 0 0 1 283.306667-682.666666 397.226667 397.226667 0 0 1 244.053333 85.333333l122.453333-123.733333a51.2 51.2 0 0 1 72.533334 0 51.2 51.2 0 0 1-2.133334 70.4zM263.68 186.88a315.733333 315.733333 0 1 0 223.146667-92.16 313.173333 313.173333 0 0 0-223.146667 92.16z"  horiz-adv-x="1024" />
      
      <glyph glyph-name="a-1_xiugaimima" unicode="&#58990;" d="M512 810.666667a426.666667 426.666667 0 1 1 426.666667-426.666667A426.666667 426.666667 0 0 1 512 810.666667z m0-768a341.333333 341.333333 0 1 0 341.333333 341.333333 341.333333 341.333333 0 0 0-341.333333-341.333333zM773.973333 404.48a37.973333 37.973333 0 0 1-52.053333-14.933333L682.666667 317.44l-54.613334 29.866667 39.68 72.106666a38.4 38.4 0 1 1-66.986666 37.12l-40.533334-72.533333-48.213333 28.16a128 128 0 0 1-61.013333 146.346667 125.44 125.44 0 0 1-61.866667 16.213333 128 128 0 0 1-61.866667-240.213333 128 128 0 0 1 61.866667-15.786667 128 128 0 0 1 80.213333 29.44L554.666667 298.666667h2.986666l119.04-65.706667a34.986667 34.986667 0 0 1 18.346667-5.12 42.666667 42.666667 0 0 1 10.666667 0 39.68 39.68 0 0 1 23.04 18.346667l58.453333 105.813333a38.4 38.4 0 0 1-13.226667 52.48z m-341.333333 17.493333a50.346667 50.346667 0 0 0-42.666667-26.453333A51.2 51.2 0 0 0 341.333333 469.333333a51.626667 51.626667 0 0 0 44.8 26.453334 49.92 49.92 0 0 0 24.746667-6.4 51.2 51.2 0 0 0 20.906667-67.413334z"  horiz-adv-x="1024" />
      
      <glyph glyph-name="a-1_yanjing" unicode="&#58991;" d="M512 128c-229.973333 0-409.6 219.733333-417.28 229.12a42.666667 42.666667 0 0 0 0 53.76C102.4 420.266667 282.026667 640 512 640s409.6-219.733333 417.28-229.12a42.666667 42.666667 0 0 0 0-53.76C921.6 347.733333 741.973333 128 512 128z m-326.4 256c51.626667-54.186667 180.48-170.666667 326.4-170.666667s274.773333 116.48 326.4 170.666667c-51.626667 54.186667-180.48 170.666667-326.4 170.666667s-274.773333-116.48-326.4-170.666667zM512 256a128 128 0 1 0 128 128 128 128 0 0 0-128-128z m0 170.666667a42.666667 42.666667 0 1 1 42.666667-42.666667 42.666667 42.666667 0 0 1-42.666667 42.666667z"  horiz-adv-x="1024" />
      
      <glyph glyph-name="a-1_yanchuxinxi-xiangshang" unicode="&#58992;" d="M544.853333 521.813333a42.666667 42.666667 0 0 1-60.586666 0l-215.893334-216.32a42.666667 42.666667 0 0 1 0-60.16 42.666667 42.666667 0 0 1 60.16 0l186.026667 185.6 180.906667-180.48a42.666667 42.666667 0 1 1 60.16 60.16zM810.666667 810.666667H213.333333a128 128 0 0 1-128-128v-597.333334a128 128 0 0 1 128-128h597.333334a128 128 0 0 1 128 128V682.666667a128 128 0 0 1-128 128z m42.666666-725.333334a42.666667 42.666667 0 0 0-42.666666-42.666666H213.333333a42.666667 42.666667 0 0 0-42.666666 42.666666V682.666667a42.666667 42.666667 0 0 0 42.666666 42.666666h597.333334a42.666667 42.666667 0 0 0 42.666666-42.666666z"  horiz-adv-x="1024" />
      
      <glyph glyph-name="a-1_xuanze-gengduo" unicode="&#58993;" d="M298.666667 725.333333m17.066666 0l605.866667 0q17.066667 0 17.066667-17.066666l0-72.533334q0-17.066667-17.066667-17.066666l-605.866667 0q-17.066667 0-17.066666 17.066666l0 72.533334q0 17.066667 17.066666 17.066666ZM85.333333 725.333333m17.066667 0l93.866667 0q17.066667 0 17.066666-17.066666l0-72.533334q0-17.066667-17.066666-17.066666l-93.866667 0q-17.066667 0-17.066667 17.066666l0 72.533334q0 17.066667 17.066667 17.066666ZM298.666667 437.333333m17.066666 0l605.866667 0q17.066667 0 17.066667-17.066666l0-72.533334q0-17.066667-17.066667-17.066666l-605.866667 0q-17.066667 0-17.066666 17.066666l0 72.533334q0 17.066667 17.066666 17.066666ZM85.333333 437.333333m17.066667 0l93.866667 0q17.066667 0 17.066666-17.066666l0-72.533334q0-17.066667-17.066666-17.066666l-93.866667 0q-17.066667 0-17.066667 17.066666l0 72.533334q0 17.066667 17.066667 17.066666ZM298.666667 149.333333m17.066666 0l605.866667 0q17.066667 0 17.066667-17.066666l0-72.533334q0-17.066667-17.066667-17.066666l-605.866667 0q-17.066667 0-17.066666 17.066666l0 72.533334q0 17.066667 17.066666 17.066666ZM85.333333 149.333333m17.066667 0l93.866667 0q17.066667 0 17.066666-17.066666l0-72.533334q0-17.066667-17.066666-17.066666l-93.866667 0q-17.066667 0-17.066667 17.066666l0 72.533334q0 17.066667 17.066667 17.066666Z"  horiz-adv-x="1024" />
      
      <glyph glyph-name="a-1_xiangqing-shouqi" unicode="&#58994;" d="M544 541.44a42.666667 42.666667 0 0 1-60.586667 0l-181.333333-181.333333a42.666667 42.666667 0 0 1 0-60.586667 42.666667 42.666667 0 0 1 30.293333-12.373333A42.666667 42.666667 0 0 1 362.666667 298.666667l149.333333 152.32 147.2-147.2a42.666667 42.666667 0 0 1 60.16 0 42.666667 42.666667 0 0 1 0 60.586666zM512 810.666667a426.666667 426.666667 0 1 1 426.666667-426.666667A426.666667 426.666667 0 0 1 512 810.666667z m0-768a341.333333 341.333333 0 1 0 341.333333 341.333333 341.333333 341.333333 0 0 0-341.333333-341.333333z"  horiz-adv-x="1024" />
      
      <glyph glyph-name="a-1_yanchuxinxi-xiangxia" unicode="&#58995;" d="M695.893333 518.826667L512 332.8 329.386667 512a42.666667 42.666667 0 1 1-60.16-60.16l210.773333-213.333333a42.666667 42.666667 0 0 1 30.293333-12.373334 42.666667 42.666667 0 0 1 30.293334 12.373334l215.893333 216.32a42.666667 42.666667 0 0 1 0 60.16 42.666667 42.666667 0 0 1-60.586667 3.84zM810.666667 807.253333H213.333333a128 128 0 0 1-128-128v-597.333333a128 128 0 0 1 128-128h597.333334a128 128 0 0 1 128 128v597.333333a128 128 0 0 1-128 128z m42.666666-725.333333a42.666667 42.666667 0 0 0-42.666666-42.666667H213.333333a42.666667 42.666667 0 0 0-42.666666 42.666667v597.333333a42.666667 42.666667 0 0 0 42.666666 42.666667h597.333334a42.666667 42.666667 0 0 0 42.666666-42.666667z"  horiz-adv-x="1024" />
      
      <glyph glyph-name="a-1_yiwen" unicode="&#58996;" d="M512 640a130.56 130.56 0 0 1-130.56-130.56 42.666667 42.666667 0 0 1 85.333333 0 45.226667 45.226667 0 0 0 90.453334 0 32 32 0 0 0-14.08-26.88A128 128 0 0 1 469.333333 377.6V341.333333a42.666667 42.666667 0 1 1 85.333334 0v37.12c0 7.68 2.133333 13.653333 33.706666 33.28a117.333333 117.333333 0 0 1 54.186667 98.986667A130.56 130.56 0 0 1 512 640zM512.853333 180.48m-53.333333 0a53.333333 53.333333 0 1 1 106.666667 0 53.333333 53.333333 0 1 1-106.666667 0ZM512 810.666667a426.666667 426.666667 0 1 1 426.666667-426.666667A426.666667 426.666667 0 0 1 512 810.666667z m0-768a341.333333 341.333333 0 1 0 341.333333 341.333333 341.333333 341.333333 0 0 0-341.333333-341.333333z"  horiz-adv-x="1024" />
      
      <glyph glyph-name="a-1_yuangongguanli-jianqu" unicode="&#58997;" d="M725.333333 426.666667H298.666667a42.666667 42.666667 0 0 1 0-85.333334h426.666666a42.666667 42.666667 0 0 1 0 85.333334zM810.666667 810.666667H213.333333a128 128 0 0 1-128-128v-597.333334a128 128 0 0 1 128-128h597.333334a128 128 0 0 1 128 128V682.666667a128 128 0 0 1-128 128z m42.666666-725.333334a42.666667 42.666667 0 0 0-42.666666-42.666666H213.333333a42.666667 42.666667 0 0 0-42.666666 42.666666V682.666667a42.666667 42.666667 0 0 0 42.666666 42.666666h597.333334a42.666667 42.666667 0 0 0 42.666666-42.666666z"  horiz-adv-x="1024" />
      
      <glyph glyph-name="a-1_yuangongguanli-xiangshang" unicode="&#58998;" d="M820.48 519.68L542.293333 797.866667a42.666667 42.666667 0 0 1-60.586666 0L203.52 519.68a42.666667 42.666667 0 0 1 30.293333-72.96h137.813334V0a42.666667 42.666667 0 0 1 42.666666-42.666667h195.413334a42.666667 42.666667 0 0 1 42.666666 42.666667V446.72h137.813334a42.666667 42.666667 0 0 1 30.293333 72.96z"  horiz-adv-x="1024" />
      
      <glyph glyph-name="a-1_yuangongguanli-tianjia" unicode="&#58999;" d="M725.333333 426.666667h-170.666666V597.333333a42.666667 42.666667 0 0 1-85.333334 0v-170.666666H298.666667a42.666667 42.666667 0 0 1 0-85.333334h170.666666v-170.666666a42.666667 42.666667 0 0 1 85.333334 0v170.666666h170.666666a42.666667 42.666667 0 0 1 0 85.333334zM810.666667 810.666667H213.333333a128 128 0 0 1-128-128v-597.333334a128 128 0 0 1 128-128h597.333334a128 128 0 0 1 128 128V682.666667a128 128 0 0 1-128 128z m42.666666-725.333334a42.666667 42.666667 0 0 0-42.666666-42.666666H213.333333a42.666667 42.666667 0 0 0-42.666666 42.666666V682.666667a42.666667 42.666667 0 0 0 42.666666 42.666666h597.333334a42.666667 42.666667 0 0 0 42.666666-42.666666z"  horiz-adv-x="1024" />
      
      <glyph glyph-name="a-1_yuangongguanli-bianji" unicode="&#59000;" d="M896 469.333333a42.666667 42.666667 0 0 1-42.666667-42.666666v-279.04A101.546667 101.546667 0 0 0 752.213333 42.666667H272.213333A101.546667 101.546667 0 0 0 170.666667 143.786667V623.786667A101.12 101.12 0 0 0 273.92 725.333333H554.666667a42.666667 42.666667 0 0 1 0 85.333334H273.92A187.733333 187.733333 0 0 1 85.333333 623.786667v-480A186.88 186.88 0 0 1 272.213333-42.666667h480A188.16 188.16 0 0 1 938.666667 146.773333V426.666667a42.666667 42.666667 0 0 1-42.666667 42.666666zM384 366.933333v-90.453333a21.333333 21.333333 0 0 1 21.333333-21.333333h89.6a20.053333 20.053333 0 0 1 14.933334 6.4l355.84 355.84-120.32 120.32-355.84-355.84a20.053333 20.053333 0 0 1-5.546667-14.933334zM926.293333 677.546667a42.666667 42.666667 0 0 1 0 60.16l-60.586666 60.586666a42.666667 42.666667 0 0 1-60.16 0l-30.293334-30.293333L896 647.253333z"  horiz-adv-x="1024" />
      
      <glyph glyph-name="a-1_zhaopian" unicode="&#59001;" d="M328.533333 447.573333a85.333333 85.333333 0 1 1-85.333333 85.333334 85.333333 85.333333 0 0 1 85.333333-85.333334zM853.333333 760.32H170.666667a85.333333 85.333333 0 0 1-85.333334-85.333333v-597.333334a85.333333 85.333333 0 0 1 85.333334-85.333333h682.666666a85.333333 85.333333 0 0 1 85.333334 85.333333v597.333334a85.333333 85.333333 0 0 1-85.333334 85.333333z m0-407.466667a243.626667 243.626667 0 0 1-170.666666 63.146667c-103.68-4.693333-141.653333-170.666667-256-199.253333-54.186667-12.8-104.96 67.84-164.693334 67.84A151.893333 151.893333 0 0 1 170.666667 256V674.986667h682.666666z"  horiz-adv-x="1024" />
      
      <glyph glyph-name="a-1_zhuyi-59" unicode="&#59002;" d="M512 810.666667a426.666667 426.666667 0 1 1 426.666667-426.666667A426.666667 426.666667 0 0 1 512 810.666667z m0-157.44a53.333333 53.333333 0 1 0-53.333333-53.333334A53.333333 53.333333 0 0 0 512 653.226667z m53.333333-490.24a53.333333 53.333333 0 0 0-106.666666 0v256a53.333333 53.333333 0 0 0 106.666666 0z"  horiz-adv-x="1024" />
      
      <glyph glyph-name="a-1_yuangongguanli-xiangxia" unicode="&#59003;" d="M203.52 248.32l278.186667-278.186667a42.666667 42.666667 0 0 1 60.586666 0l278.186667 278.186667a42.666667 42.666667 0 0 1-30.293333 72.96h-137.813334V768a42.666667 42.666667 0 0 1-42.666666 42.666667H414.293333a42.666667 42.666667 0 0 1-42.666666-42.666667v-446.72H233.813333a42.666667 42.666667 0 0 1-30.293333-72.96z"  horiz-adv-x="1024" />
      
      <glyph glyph-name="a-1_zhuyi-47" unicode="&#59004;" d="M512 725.333333a341.333333 341.333333 0 1 0-341.333333-341.333333 341.333333 341.333333 0 0 0 341.333333 341.333333m0 85.333334a426.666667 426.666667 0 1 1 426.666667-426.666667A426.666667 426.666667 0 0 1 512 810.666667zM512 180.906667m-53.333333 0a53.333333 53.333333 0 1 1 106.666666 0 53.333333 53.333333 0 1 1-106.666666 0ZM458.666667 640.426667m53.333333 0l0 0q53.333333 0 53.333333-53.333334l0-234.666666q0-53.333333-53.333333-53.333334l0 0q-53.333333 0-53.333333 53.333334l0 234.666666q0 53.333333 53.333333 53.333334Z"  horiz-adv-x="1024" />
      
      <glyph glyph-name="a-1_caiwutaizhang" unicode="&#59005;" d="M750.933333 249.6a34.133333 34.133333 0 1 1 0 68.266667h-42.666666l56.746666 51.2a34.133333 34.133333 0 1 1-45.653333 50.773333l-77.226667-69.546667-76.8 69.546667a34.133333 34.133333 0 0 1-45.653333-50.773333l56.746667-51.2h-42.666667a34.133333 34.133333 0 0 1 0-68.266667h74.24v-27.306667h-74.24a34.133333 34.133333 0 0 1 0-68.266666h74.24v-34.133334a34.133333 34.133333 0 0 1 68.266667 0v34.133334h74.666666a34.133333 34.133333 0 1 1 0 68.266666h-74.666666v27.306667zM789.333333 810.666667h-554.666666a128 128 0 0 1-128-128v-597.333334a128 128 0 0 1 128-128h554.666666a128 128 0 0 1 128 128V682.666667a128 128 0 0 1-128 128z m42.666667-725.333334a42.666667 42.666667 0 0 0-42.666667-42.666666h-554.666666a42.666667 42.666667 0 0 0-42.666667 42.666666V682.666667a42.666667 42.666667 0 0 0 42.666667 42.666666h554.666666a42.666667 42.666667 0 0 0 42.666667-42.666666zM277.333333 554.666667h256a42.666667 42.666667 0 0 1 0 85.333333h-256a42.666667 42.666667 0 0 1 0-85.333333zM405.333333 487.68h-128a42.666667 42.666667 0 0 1 0-85.333333h128a42.666667 42.666667 0 0 1 0 85.333333z"  horiz-adv-x="1024" />
      
      <glyph glyph-name="a-1_changpaiguanli" unicode="&#59006;" d="M512 810.666667a426.666667 426.666667 0 1 1 426.666667-426.666667A426.666667 426.666667 0 0 1 512 810.666667z m0-768a341.333333 341.333333 0 1 0 341.333333 341.333333 341.333333 341.333333 0 0 0-341.333333-341.333333zM753.066667 458.24a64.426667 64.426667 0 0 1-51.626667 42.666667l-91.306667 14.08L569.173333 597.333333a63.573333 63.573333 0 0 1-114.346666 0l-42.666667-82.346666-91.306667-13.226667a64.426667 64.426667 0 0 1-51.626666-42.666667 63.573333 63.573333 0 0 1 16.213333-65.706666l66.133333-64.426667-15.786666-90.88a63.573333 63.573333 0 0 1 25.6-62.293333 64 64 0 0 1 67.413333-5.12L512 213.333333l81.493333-42.666666a66.986667 66.986667 0 0 1 29.866667-7.253334 64.426667 64.426667 0 0 1 63.146667 74.666667l-15.786667 90.88 66.133333 64.426667a63.573333 63.573333 0 0 1 16.213334 64.853333z m-140.8-79.786667a64.853333 64.853333 0 0 1-18.346667-56.746666l12.373333-71.68-64.426666 34.133333a66.986667 66.986667 0 0 1-29.866667 7.253333 62.293333 62.293333 0 0 1-29.866667-7.68l-64.426666-33.706666 12.373333 71.68a64.853333 64.853333 0 0 1-18.346667 56.746666l-52.48 50.773334 72.533334 10.666666a63.573333 63.573333 0 0 1 47.786666 34.986667L512 540.16l32.426667-65.28a63.573333 63.573333 0 0 1 47.786666-34.986667l72.533334-10.666666z"  horiz-adv-x="1024" />
      
      <glyph glyph-name="a-1_huiyuanguanli" unicode="&#59007;" d="M904.96 649.386667a85.333333 85.333333 0 0 1-89.173333 10.666666L725.333333 620.373333l-149.333333 162.133334a89.6 89.6 0 0 1-128 0L298.666667 619.946667l-90.453334 40.106666A85.333333 85.333333 0 0 1 85.333333 565.333333l68.266667-368.64a85.333333 85.333333 0 0 1 85.333333-71.68h546.133334a85.333333 85.333333 0 0 1 85.333333 71.68L938.666667 565.333333a85.333333 85.333333 0 0 1-33.706667 84.053334zM786.346667 213.333333H237.653333L172.8 582.4l88.32-40.106667a85.333333 85.333333 0 0 1 99.84 20.053334L512 725.333333l149.76-162.56a85.333333 85.333333 0 0 1 99.84-20.053333L853.333333 580.693333zM810.666667 42.666667H213.333333a42.666667 42.666667 0 0 1 0-85.333334h597.333334a42.666667 42.666667 0 0 1 0 85.333334z"  horiz-adv-x="1024" />
      
      <glyph glyph-name="a-1_piaowuguanli" unicode="&#59008;" d="M384 426.666667h256a42.666667 42.666667 0 1 1 0 85.333333H384a42.666667 42.666667 0 0 1 0-85.333333zM640 341.333333H384a42.666667 42.666667 0 1 1 0-85.333333h256a42.666667 42.666667 0 0 1 0 85.333333zM938.666667 469.333333V640a85.333333 85.333333 0 0 1-85.333334 85.333333H170.666667a85.333333 85.333333 0 0 1-85.333334-85.333333v-170.666667a85.333333 85.333333 0 0 0 0-170.666666v-170.666667a85.333333 85.333333 0 0 1 85.333334-85.333333h682.666666a85.333333 85.333333 0 0 1 85.333334 85.333333v170.666667a85.333333 85.333333 0 0 0 0 170.666666z m-85.333334 62.293334a170.666667 170.666667 0 0 1 0-295.253334V128H170.666667v108.373333a170.666667 170.666667 0 0 1 0 295.253334V640h682.666666z"  horiz-adv-x="1024" />
      
      <glyph glyph-name="a-1_hetongguanli" unicode="&#59009;" d="M832 810.666667h-640a85.333333 85.333333 0 0 1-85.333333-85.333334v-682.666666a85.333333 85.333333 0 0 1 85.333333-85.333334h640a85.333333 85.333333 0 0 1 85.333333 85.333334V725.333333a85.333333 85.333333 0 0 1-85.333333 85.333334z m0-768h-640V725.333333h640zM277.333333 554.666667h256a42.666667 42.666667 0 0 1 0 85.333333h-256a42.666667 42.666667 0 0 1 0-85.333333zM277.333333 402.346667h128a42.666667 42.666667 0 0 1 0 85.333333h-128a42.666667 42.666667 0 0 1 0-85.333333zM463.36 333.226667a34.133333 34.133333 0 0 1-18.773333-58.026667l58.88-57.6-13.653334-81.066667a33.706667 33.706667 0 0 1 13.226667-33.28 34.986667 34.986667 0 0 1 36.266667-2.56l72.533333 38.4 72.96-38.4a34.56 34.56 0 0 1 15.786667-3.84 34.133333 34.133333 0 0 1 33.706666 39.68l-14.08 81.066667 58.88 57.6a33.706667 33.706667 0 0 1-18.773333 58.026667l-81.493333 11.946666-36.266667 73.813334a35.84 35.84 0 0 1-61.44 0l-36.266667-73.813334zM597.333333 298.666667l13.653334 28.16 13.653333-28.16a33.706667 33.706667 0 0 1 26.026667-18.346667l30.72-4.693333-22.613334-21.76a33.28 33.28 0 0 1-9.386666-29.866667l5.12-30.72-27.733334 14.506667a34.56 34.56 0 0 1-31.573333 0l-27.306667-14.506667 5.12 30.72a33.706667 33.706667 0 0 1-9.813333 29.866667l-22.186667 21.76 30.72 4.693333A33.706667 33.706667 0 0 1 597.333333 298.666667z"  horiz-adv-x="1024" />
      
      <glyph glyph-name="a-1_changguanguanli" unicode="&#59010;" d="M938.666667 391.68a12.373333 12.373333 0 0 1 0 3.84 30.293333 30.293333 0 0 1 0 12.373333l-71.253334 303.36A128 128 0 0 1 742.826667 810.666667H281.173333a128 128 0 0 1-124.586666-99.413334L85.333333 407.893333a30.293333 30.293333 0 0 1 0-12.373333 12.373333 12.373333 0 0 1 0-3.84 138.666667 138.666667 0 0 1 42.666667-99.413333V85.333333a128 128 0 0 1 128-128h512a128 128 0 0 1 128 128v206.933334a138.666667 138.666667 0 0 1 42.666667 99.413333z m-698.88 298.666667a42.666667 42.666667 0 0 0 42.666666 33.28h460.373334a42.666667 42.666667 0 0 0 42.666666-33.28l69.12-298.666667a53.333333 53.333333 0 0 0-106.666666 0 42.666667 42.666667 0 0 1-85.333334 0 53.333333 53.333333 0 0 0-106.666666 0 42.666667 42.666667 0 0 1-85.333334 0 53.333333 53.333333 0 0 0-106.666666 0 42.666667 42.666667 0 0 1-85.333334 0 53.333333 53.333333 0 0 0-106.666666 0zM810.666667 85.333333a42.666667 42.666667 0 0 0-42.666667-42.666666H256a42.666667 42.666667 0 0 0-42.666667 42.666666v170.666667a81.066667 81.066667 0 0 1 10.666667 0 136.96 136.96 0 0 1 96 39.253333 136.96 136.96 0 0 1 192 0 136.96 136.96 0 0 1 192 0 136.96 136.96 0 0 1 96-39.253333 81.066667 81.066667 0 0 1 10.666667 0zM384 514.56h256a42.666667 42.666667 0 0 1 0 85.333333H384a42.666667 42.666667 0 0 1 0-85.333333z"  horiz-adv-x="1024" />
      
      <glyph glyph-name="a-1_wodedanju" unicode="&#59011;" d="M853.333333 810.666667H341.333333a85.333333 85.333333 0 0 1-85.333333-85.333334v-85.333333H170.666667a85.333333 85.333333 0 0 1-85.333334-85.333333v-512a85.333333 85.333333 0 0 1 85.333334-85.333334h512a85.333333 85.333333 0 0 1 85.333333 85.333334v42.666666h85.333333a85.333333 85.333333 0 0 1 85.333334 85.333334V725.333333a85.333333 85.333333 0 0 1-85.333334 85.333334z m-170.666666-768H170.666667V554.666667h512z m170.666666 128h-85.333333V554.666667a85.333333 85.333333 0 0 1-85.333333 85.333333H341.333333V725.333333h512zM256 426.666667m42.666667 0l256 0q42.666667 0 42.666666-42.666667l0 0q0-42.666667-42.666666-42.666667l-256 0q-42.666667 0-42.666667 42.666667l0 0q0 42.666667 42.666667 42.666667ZM256 256m42.666667 0l256 0q42.666667 0 42.666666-42.666667l0 0q0-42.666667-42.666666-42.666666l-256 0q-42.666667 0-42.666667 42.666666l0 0q0 42.666667 42.666667 42.666667Z"  horiz-adv-x="1024" />
      
      <glyph glyph-name="a-1_shouye" unicode="&#59012;" d="M925.44 450.986667l-356.266667 335.786666a85.333333 85.333333 0 0 1-113.493333 0l-357.12-335.786666a42.666667 42.666667 0 0 1-10.24-46.933334 42.666667 42.666667 0 0 1 39.68-26.88v-298.666666A119.893333 119.893333 0 0 1 247.466667-42.666667h529.066666a119.893333 119.893333 0 0 1 119.466667 119.466667v298.666667a42.666667 42.666667 0 0 1 39.68 26.88 42.666667 42.666667 0 0 1-10.24 48.64z m-114.773333-31.146667v-341.333333a34.133333 34.133333 0 0 0-34.133334-34.133334H247.466667a34.133333 34.133333 0 0 0-34.133334 34.133334v341.333333a42.666667 42.666667 0 0 1-3.84 18.346667L512 725.333333l302.506667-285.44a42.666667 42.666667 0 0 1-3.84-20.053333zM341.333333 170.666667a42.666667 42.666667 0 0 1 42.666667-42.666667h256a42.666667 42.666667 0 1 1 0 85.333333H384a42.666667 42.666667 0 0 1-42.666667-42.666666z"  horiz-adv-x="1024" />
      
      <glyph glyph-name="a-1_caiwuguanli" unicode="&#59013;" d="M393.813333 304.213333h78.933334v-42.666666H395.093333a38.4 38.4 0 0 1 0-76.8h77.653334v-51.2a38.4 38.4 0 0 1 76.8 0v51.2h80.64a38.4 38.4 0 0 1 0 76.8h-80.64v42.666666h79.36a38.4 38.4 0 1 1 0 76.8h-47.786667L640 433.92a38.4 38.4 0 1 1-51.2 57.173333L512 421.546667l-76.8 69.546666A38.4 38.4 0 0 1 384 433.92l58.453333-52.906667H393.813333a38.4 38.4 0 1 1 0-76.8zM832 640h-298.666667v12.8A152.32 152.32 0 0 1 388.266667 810.666667h-170.666667a115.626667 115.626667 0 0 1-110.933333-119.466667V42.666667a85.333333 85.333333 0 0 1 85.333333-85.333334h640a85.333333 85.333333 0 0 1 85.333333 85.333334V554.666667a85.333333 85.333333 0 0 1-85.333333 85.333333z m-640 51.2c0 18.346667 11.946667 34.133333 25.6 34.133333h170.666667a66.986667 66.986667 0 0 0 59.733333-72.533333V640h-256z m640-648.533333h-640V554.666667h640z"  horiz-adv-x="1024" />
      
      <glyph glyph-name="a-1_yonghuguanli" unicode="&#59014;" d="M630.186667 414.72a42.666667 42.666667 0 0 1 0 60.586667 42.666667 42.666667 0 0 1-60.16 0 82.346667 82.346667 0 0 0-116.906667 0 42.666667 42.666667 0 0 1-60.16 0 42.666667 42.666667 0 0 1 0-60.586667 168.106667 168.106667 0 0 1 237.226667 0zM768 298.666667h-46.933333a298.666667 298.666667 0 1 1-418.133334 0H256a170.666667 170.666667 0 0 1 0-341.333334h512a170.666667 170.666667 0 0 1 0 341.333334zM298.666667 512a213.333333 213.333333 0 1 0 213.333333-213.333333 213.333333 213.333333 0 0 0-213.333333 213.333333z m469.333333-469.333333H256a85.333333 85.333333 0 0 0 0 170.666666h512a85.333333 85.333333 0 0 0 0-170.666666z"  horiz-adv-x="1024" />
      
      <glyph glyph-name="a-1_xitongshezhi" unicode="&#59015;" d="M512 554.666667a162.56 162.56 0 0 1-34.986667-3.84A170.666667 170.666667 0 0 1 512 213.333333a162.56 162.56 0 0 1 34.986667 3.84A170.666667 170.666667 0 0 1 512 554.666667z m71.253333-217.173334A85.333333 85.333333 0 0 0 512 298.666667a85.333333 85.333333 0 0 0-17.493333 170.666666 85.333333 85.333333 0 0 0 17.493333 0 85.333333 85.333333 0 0 0 85.333333-67.84 82.773333 82.773333 0 0 0-14.08-64zM938.666667 448a85.333333 85.333333 0 0 1-85.333334 85.333333h-34.56a309.333333 309.333333 0 0 1-24.32 42.666667l16.213334 29.013333a85.333333 85.333333 0 0 1-31.146667 116.48l-110.933333 64a85.333333 85.333333 0 0 1-113.92-31.146666l-18.773334-29.013334a357.973333 357.973333 0 0 1-47.786666 0L469.333333 754.346667a85.333333 85.333333 0 0 1-51.626666 39.68 85.333333 85.333333 0 0 1-64.853334-8.533334L243.2 721.493333A85.333333 85.333333 0 0 1 213.333333 605.013333l17.493334-30.293333a282.453333 282.453333 0 0 1-23.893334-42.666667H170.666667a85.333333 85.333333 0 0 1-85.333334-85.333333v-128a85.333333 85.333333 0 0 1 25.173334-60.16 66.986667 66.986667 0 0 1 17.493333-13.653333 81.92 81.92 0 0 1 42.666667-11.52h34.56a309.333333 309.333333 0 0 1 24.32-42.666667l-16.213334-27.733333a85.333333 85.333333 0 0 1 31.146667-116.48l110.933333-64a85.333333 85.333333 0 0 1 113.92 31.146666l17.493334 30.293334a357.973333 357.973333 0 0 1 47.786666 0l17.493334-29.866667a85.333333 85.333333 0 0 1 31.146666-31.146667 85.333333 85.333333 0 0 1 85.333334 0l110.933333 64a85.333333 85.333333 0 0 1 31.146667 116.053334l-17.493334 30.293333a282.453333 282.453333 0 0 1 23.893334 42.666667H853.333333a85.333333 85.333333 0 0 1 85.333334 85.333333z m-85.333334-128h-94.293333c0-5.12-2.133333-10.666667-3.84-15.786667a256 256 0 0 0-64-102.826666l34.133333-56.746667 10.666667-18.773333 3.413333-5.546667-110.933333-64-2.986667 5.546667-11.093333 19.2-32.426667 56.32a251.733333 251.733333 0 0 0-136.533333 0l-33.28-57.6-10.666667-18.773334-3.413333-5.546666L341.333333 88.746667l-55.466666 31.573333 2.986666 5.546667 9.813334 18.773333 33.28 57.6a256 256 0 0 0-66.56 117.76H170.666667v128h94.293333c0 5.12 0 10.666667 3.84 15.786667a251.733333 251.733333 0 0 0 64 102.4L298.666667 623.36 289.28 640l-3.413333 7.68 110.933333 64 2.986667-5.546667 11.093333-19.2 32.853333-56.32a256 256 0 0 0 136.533334 0l33.28 57.173334 10.666666 18.773333 2.986667 5.546667 55.466667-32.853334 55.04-31.573333-2.56-7.68-9.813334-16.64-33.28-57.6a256 256 0 0 0 67.84-117.76H853.333333z"  horiz-adv-x="1024" />
      
      <glyph glyph-name="a-1_yuangongguanli" unicode="&#59016;" d="M512 810.666667a426.666667 426.666667 0 0 1-290.133333-737.706667 42.666667 42.666667 0 0 1 13.653333-12.373333A426.666667 426.666667 0 1 1 512 810.666667zM298.666667 117.333333a128 128 0 0 0 128 107.946667h170.666666a128 128 0 0 0 128-109.653333 341.333333 341.333333 0 0 0-422.826666 0zM426.666667 426.666667a85.333333 85.333333 0 1 0 85.333333-85.333334 85.333333 85.333333 0 0 0-85.333333 85.333334z m363.946666-240.64a213.333333 213.333333 0 0 1-157.013333 120.746666 170.666667 170.666667 0 1 1-243.2 0 213.333333 213.333333 0 0 1-156.16-118.613333A337.493333 337.493333 0 0 0 170.666667 384a341.333333 341.333333 0 1 0 618.666666-197.973333z"  horiz-adv-x="1024" />
      
      <glyph glyph-name="a-1_yunyingguanli" unicode="&#59017;" d="M810.666667 810.666667H213.333333a128 128 0 0 1-128-128v-597.333334a128 128 0 0 1 128-128h597.333334a128 128 0 0 1 128 128V682.666667a128 128 0 0 1-128 128z m42.666666-725.333334a42.666667 42.666667 0 0 0-42.666666-42.666666H213.333333a42.666667 42.666667 0 0 0-42.666666 42.666666V682.666667a42.666667 42.666667 0 0 0 42.666666 42.666666h597.333334a42.666667 42.666667 0 0 0 42.666666-42.666666zM709.546667 529.92l-151.893334-151.466667-106.666666 106.24a42.666667 42.666667 0 0 1-60.16 0L256 348.16a42.666667 42.666667 0 1 1 60.16-60.586667l106.666667 106.666667 106.666666-106.666667a42.666667 42.666667 0 0 1 29.866667-12.373333 42.666667 42.666667 0 0 1 30.293333 12.373333L768 469.333333a42.666667 42.666667 0 0 1 0 60.16 42.666667 42.666667 0 0 1-58.453333 0.426667z"  horiz-adv-x="1024" />
      
      <glyph glyph-name="a-1_shujubaobiao" unicode="&#59018;" d="M896 42.666667H128a42.666667 42.666667 0 0 1 0-85.333334h768a42.666667 42.666667 0 0 1 0 85.333334zM170.666667 384v-213.333333a42.666667 42.666667 0 0 1 85.333333 0v213.333333a42.666667 42.666667 0 0 1-85.333333 0zM369.92 469.333333v-298.666666a42.666667 42.666667 0 0 1 85.333333 0v298.666666a42.666667 42.666667 0 0 1-85.333333 0zM568.746667 341.333333v-170.666666a42.666667 42.666667 0 0 1 85.333333 0v170.666666a42.666667 42.666667 0 0 1-85.333333 0zM768 469.333333v-298.666666a42.666667 42.666667 0 0 1 85.333333 0v298.666666a42.666667 42.666667 0 0 1-85.333333 0zM170.666667 557.653333a42.666667 42.666667 0 0 1 25.173333 8.533334l203.946667 148.48 186.88-135.68a42.666667 42.666667 0 0 1 47.786666 0l241.92 153.6a42.666667 42.666667 0 0 1 12.8 58.88 42.666667 42.666667 0 0 1-58.88 13.226666l-217.173333-139.52L426.666667 801.706667a42.666667 42.666667 0 0 1-49.92 0L145.493333 634.88a42.666667 42.666667 0 0 1-9.386666-59.733333 42.666667 42.666667 0 0 1 34.56-17.493334z"  horiz-adv-x="1024" />
      
      <glyph glyph-name="a-1_yanchuguanli" unicode="&#59019;" d="M933.546667 147.2l-49.92 208.213333a155.733333 155.733333 0 0 1-151.466667 119.04h-22.186667a213.333333 213.333333 0 0 1 36.693334 75.946667 210.346667 210.346667 0 0 1-153.173334 256 232.106667 232.106667 0 0 1-50.773333 4.266667 209.066667 209.066667 0 0 1-173.653333-325.973334v-10.24H291.84a155.733333 155.733333 0 0 1-151.466667-119.04l-49.92-208.213333a151.466667 151.466667 0 0 1 13.653334-113.493333A157.013333 157.013333 0 0 1 238.506667-42.666667h546.986666a157.013333 157.013333 0 0 1 134.4 76.8 151.466667 151.466667 0 0 1 13.653334 113.066667zM542.72 733.866667a133.973333 133.973333 0 0 0 32-3.84 132.266667 132.266667 0 0 0 100.693333-128l-244.053333 71.253333a132.266667 132.266667 0 0 0 111.36 60.586667z m112.213333-204.8a132.693333 132.693333 0 0 0-111.786666-59.733334 136.533333 136.533333 0 0 0-31.146667 2.56 131.84 131.84 0 0 0-81.92 60.16A133.546667 133.546667 0 0 0 410.453333 597.333333z m-110.933333-137.813334l-56.32-161.28-74.24 15.786667 24.32 174.933333a194.56 194.56 0 0 1 105.386667-29.44zM853.333333 72.533333a79.36 79.36 0 0 0-67.84-38.826666H238.506667A79.36 79.36 0 0 0 170.666667 72.533333a74.666667 74.666667 0 0 0-5.546667 55.466667L213.333333 337.493333a78.506667 78.506667 0 0 0 76.8 60.16h66.986667L337.493333 256A72.96 72.96 0 0 1 384 177.066667a42.666667 42.666667 0 0 0-42.666667-17.066667 38.4 38.4 0 1 1-23.466666-74.666667 116.906667 116.906667 0 0 1 33.28-5.12 143.786667 143.786667 0 0 1 114.773333 74.666667h2.986667a85.333333 85.333333 0 0 1 17.92-2.133333A73.813333 73.813333 0 0 1 554.666667 202.24l70.826666 195.413333h104.96A78.506667 78.506667 0 0 0 810.666667 337.493333L858.88 128a74.666667 74.666667 0 0 0-5.546667-55.466667zM750.08 85.333333a37.973333 37.973333 0 0 0-37.12 28.586667l-26.026667 97.28a38.4 38.4 0 1 0 74.24 19.626667l26.026667-97.28a38.4 38.4 0 0 0-27.306667-46.933334z"  horiz-adv-x="1024" />
      
      <glyph glyph-name="bangding" unicode="&#58887;" d="M163.84 573.44c-40.96 40.96-40.96 112.64 5.12 153.6 20.48 20.48 51.2 35.84 81.92 35.84 30.72 0 56.32-10.24 76.8-30.72l204.8-204.8c40.96-40.96 40.96-112.64-5.12-158.72-15.36-15.36-15.36-46.08 0-61.44 10.24-10.24 20.48-15.36 30.72-15.36 10.24 0 25.6 5.12 30.72 15.36 76.8 76.8 81.92 204.8 5.12 281.6l-204.8 204.8C353.28 829.44 302.08 849.92 250.88 849.92h-5.12c-51.2 0-102.4-20.48-143.36-61.44C25.6 711.68 25.6 583.68 102.4 506.88l179.2-179.2c10.24-10.24 20.48-15.36 30.72-15.36 10.24 0 25.6 5.12 30.72 15.36 15.36 15.36 15.36 46.08 0 61.44L163.84 573.44zM921.6 261.12l-179.2 179.2c-15.36 15.36-46.08 15.36-61.44 0-15.36-15.36-15.36-46.08 0-61.44l179.2-179.2c40.96-40.96 40.96-112.64-5.12-158.72-46.08-46.08-112.64-46.08-158.72-5.12l-204.8 204.8c-40.96 40.96-40.96 112.64 5.12 158.72 15.36 15.36 15.36 46.08 0 61.44-20.48 25.6-51.2 25.6-66.56 5.12-76.8-76.8-81.92-204.8-5.12-281.6l204.8-204.8C665.6-56.32 716.8-76.8 768-76.8c51.2 0 102.4 20.48 143.36 61.44 87.04 71.68 87.04 199.68 10.24 276.48z"  horiz-adv-x="1024" />
      
      <glyph glyph-name="tuihuishenqing" unicode="&#58888;" d="M512-97.28C245.76-97.28 30.72 117.76 30.72 384S245.76 865.28 512 865.28s481.28-215.04 481.28-481.28-215.04-481.28-481.28-481.28z m0 880.64c-220.16 0-399.36-179.2-399.36-399.36s179.2-399.36 399.36-399.36 399.36 179.2 399.36 399.36-179.2 399.36-399.36 399.36zM573.44 542.72H404.48c20.48 15.36 20.48 40.96 5.12 56.32-10.24 20.48-35.84 20.48-56.32 5.12L271.36 532.48s-5.12-5.12-5.12-10.24c0 0 0-5.12-5.12-5.12V486.4c0-5.12 5.12-10.24 10.24-15.36l81.92-81.92c5.12-5.12 15.36-10.24 25.6-10.24s20.48 5.12 30.72 10.24c15.36 15.36 15.36 40.96 0 56.32l-15.36 15.36h179.2c61.44 0 112.64-51.2 112.64-112.64 0-30.72-10.24-61.44-30.72-81.92-20.48-20.48-51.2-35.84-81.92-35.84h-204.8c-20.48 0-40.96-20.48-40.96-40.96s20.48-40.96 40.96-40.96h204.8c51.2 0 102.4 20.48 138.24 61.44 35.84 35.84 56.32 92.16 56.32 143.36-5.12 107.52-92.16 189.44-194.56 189.44z"  horiz-adv-x="1024" />
      
      <glyph glyph-name="fuzhi" unicode="&#58889;" d="M849.92 860.16H353.28C276.48 860.16 220.16 798.72 220.16 727.04v-46.08h-46.08C97.28 680.96 40.96 619.52 40.96 547.84v-496.64c0-76.8 61.44-133.12 133.12-133.12h496.64c76.8 0 133.12 61.44 133.12 133.12v46.08h46.08c76.8 0 133.12 61.44 133.12 133.12V721.92c5.12 76.8-56.32 138.24-133.12 138.24zM716.8 46.08c0-25.6-20.48-46.08-46.08-46.08H174.08c-25.6 0-46.08 20.48-46.08 46.08V542.72c0 25.6 20.48 46.08 46.08 46.08h496.64c25.6 0 46.08-20.48 46.08-46.08v-496.64z m179.2 179.2c0-25.6-20.48-46.08-46.08-46.08h-46.08V542.72c0 76.8-61.44 133.12-133.12 133.12H307.2v46.08c0 25.6 20.48 46.08 46.08 46.08h496.64c25.6 0 46.08-20.48 46.08-46.08v-496.64z"  horiz-adv-x="1024" />
      
      <glyph glyph-name="bianji" unicode="&#58890;" d="M931.84 92.16h-81.92V465.92c0 168.96-128 312.32-291.84 332.8V855.04c-5.12 20.48-20.48 40.96-46.08 40.96s-40.96-20.48-40.96-40.96v-56.32C307.2 778.24 179.2 640 179.2 465.92v-373.76H92.16c-25.6 0-40.96-20.48-40.96-40.96 0-25.6 20.48-40.96 40.96-40.96h271.36c10.24-71.68 71.68-122.88 143.36-122.88s133.12 56.32 143.36 122.88H921.6c25.6 0 40.96 20.48 40.96 40.96 10.24 20.48-10.24 40.96-30.72 40.96zM512-35.84c-25.6 0-51.2 15.36-61.44 40.96h117.76c-5.12-20.48-30.72-40.96-56.32-40.96z m250.88 128H261.12V465.92C261.12 588.8 353.28 691.2 471.04 711.68v-15.36c0-25.6 20.48-40.96 40.96-40.96s40.96 20.48 40.96 40.96v20.48c117.76-20.48 209.92-122.88 209.92-245.76v-378.88z"  horiz-adv-x="1024" />
      
      <glyph glyph-name="shouyi" unicode="&#58891;" d="M849.92-87.04H174.08C102.4-87.04 46.08-30.72 46.08 40.96v107.52c0 25.6 20.48 46.08 46.08 46.08s46.08-20.48 46.08-46.08v-107.52c0-20.48 20.48-40.96 40.96-40.96h680.96c20.48 0 40.96 20.48 40.96 40.96V721.92c0 20.48-20.48 40.96-40.96 40.96H174.08c-20.48 0-40.96-20.48-40.96-40.96v-158.72c0-25.6-20.48-46.08-46.08-46.08s-46.08 25.6-46.08 51.2v153.6C40.96 793.6 102.4 855.04 174.08 855.04h680.96c71.68 0 128-56.32 128-128v-680.96c0-71.68-61.44-133.12-133.12-133.12zM732.16 573.44h-158.72c-25.6 0-46.08-20.48-46.08-46.08s25.6-40.96 51.2-40.96h66.56l-102.4-112.64-102.4 87.04c-15.36 15.36-40.96 15.36-56.32 0l-209.92-158.72c-20.48-20.48-25.6-46.08-10.24-66.56 10.24-10.24 20.48-15.36 35.84-15.36 10.24 0 20.48 5.12 25.6 10.24l179.2 138.24 107.52-92.16c20.48-15.36 46.08-15.36 61.44 5.12l117.76 128v-35.84c0-25.6 20.48-46.08 46.08-46.08s46.08 20.48 46.08 46.08v153.6c-5.12 25.6-25.6 46.08-51.2 46.08z"  horiz-adv-x="1024" />
      
      </font>
</defs>
</svg>
